<svg preserveAspectRatio="none" width="100%" height="100%" overflow="visible" style="display: block;" viewBox="0 0 23.3333 23.3333" fill="none" xmlns="http://www.w3.org/2000/svg">
<path id="Icon" d="M4.36842 14.5965C3.81614 14.5965 3.36842 15.0442 3.36842 15.5965C3.36842 16.1488 3.81614 16.5965 4.36842 16.5965V15.5965V14.5965ZM5.49123 16.5965C6.04351 16.5965 6.49123 16.1488 6.49123 15.5965C6.49123 15.0442 6.04351 14.5965 5.49123 14.5965V15.5965V16.5965ZM8.85965 14.5965C8.30736 14.5965 7.85965 15.0442 7.85965 15.5965C7.85965 16.1488 8.30736 16.5965 8.85965 16.5965V15.5965V14.5965ZM9.98246 16.5965C10.5347 16.5965 10.9825 16.1488 10.9825 15.5965C10.9825 15.0442 10.5347 14.5965 9.98246 14.5965V15.5965V16.5965ZM1 22.3333H0C0 22.5986 0.105357 22.8529 0.292894 23.0404C0.480431 23.228 0.734786 23.3333 1 23.3333L1 22.3333ZM22.3333 22.3333L22.3333 23.3333C22.5985 23.3333 22.8529 23.228 23.0404 23.0404C23.228 22.8529 23.3333 22.5986 23.3333 22.3333H22.3333ZM5.49123 11.1053V10.1053H4.36842V11.1053V12.1053H5.49123V11.1053ZM9.98246 11.1053V10.1053H8.85965V11.1053V12.1053H9.98246V11.1053ZM5.49123 6.61404V5.61404H4.36842V6.61404V7.61404H5.49123V6.61404ZM9.98246 6.61404V5.61404H8.85965V6.61404V7.61404H9.98246V6.61404ZM4.36842 15.5965V16.5965H5.49123V15.5965V14.5965H4.36842V15.5965ZM8.85965 15.5965V16.5965H9.98246V15.5965V14.5965H8.85965V15.5965ZM18.4035 15.5965V14.5965H17.2807V15.5965V16.5965H18.4035V15.5965ZM18.4035 11.1053V10.1053H17.2807V11.1053V12.1053H18.4035V11.1053ZM1 22.3333H2V3.24561H1H0V22.3333H1ZM3.24561 1V2H11.1053V1V0H3.24561V1ZM13.3509 7.73681H14.3509V3.24561H13.3509H12.3509V7.73681H13.3509ZM13.3509 7.73681V8.73681H20.0877V7.73681V6.73681H13.3509V7.73681ZM22.3333 9.98242H21.3333V22.3333H22.3333H23.3333V9.98242H22.3333ZM22.3333 22.3333L22.3333 21.3333L13.3509 21.3333L13.3509 22.3333L13.3509 23.3333L22.3333 23.3333L22.3333 22.3333ZM13.3509 7.73681H12.3509V22.3333H13.3509H14.3509V7.73681H13.3509ZM1 22.3333L1 23.3333L13.3509 23.3333L13.3509 22.3333L13.3509 21.3333L0.999997 21.3333L1 22.3333ZM20.0877 7.73681V8.73681C20.7757 8.73681 21.3333 9.29449 21.3333 9.98242H22.3333H23.3333C23.3333 8.18992 21.8802 6.73681 20.0877 6.73681V7.73681ZM11.1053 1V2C11.7932 2 12.3509 2.55768 12.3509 3.24561H13.3509H14.3509C14.3509 1.45311 12.8978 0 11.1053 0V1ZM1 3.24561H2C2 2.55768 2.55768 2 3.24561 2V1V0C1.45311 0 0 1.45311 0 3.24561H1Z" fill="var(--stroke-0, #47566A)"/>
</svg>
