<svg preserveAspectRatio="none" width="100%" height="100%" overflow="visible" style="display: block;" viewBox="0 0 24.989 27.3445" fill="none" xmlns="http://www.w3.org/2000/svg">
<g id="Group 36849">
<g id="Path 71614">
<path d="M16.9299 21.9811C17.0766 20.2728 17.0311 16.167 17.0311 16.167C17.0311 16.167 16.9882 14.5445 16.7034 11.9537C16.6626 11.1513 16.3434 10.3891 15.8018 9.80073C15.1889 9.24842 14.3843 8.96417 13.5644 9.01027C12.0038 8.9314 10.3678 8.88803 8.6623 8.88976C7.05201 8.88976 5.50522 8.93573 4.02963 9.01027C3.21288 8.97429 2.41387 9.25801 1.79908 9.80243C1.1863 10.3531 0.814555 11.1267 0.765301 11.9537C0.577015 13.7643 0.491082 15.5843 0.507928 17.4048C0.459867 19.4662 0.545845 21.5285 0.765301 23.5786C0.820053 24.4047 1.18895 25.1775 1.79478 25.7351C2.09764 26.0095 2.45105 26.2208 2.8348 26.3572C3.21855 26.4936 3.62515 26.5523 4.03134 26.5299C5.80889 26.7932 7.60632 26.8942 9.40181 26.8315C10.7964 26.8398 12.1895 26.7389 13.5686 26.5299C14.1662 26.4044 14.7569 26.2479 15.3385 26.0609" fill="var(--fill-0, white)"/>
<path d="M16.9299 21.9811C17.0766 20.2728 17.0311 16.167 17.0311 16.167C17.0311 16.167 16.9882 14.5445 16.7034 11.9537C16.6626 11.1513 16.3434 10.3891 15.8018 9.80073C15.1889 9.24842 14.3843 8.96417 13.5644 9.01027C12.0038 8.9314 10.3678 8.88803 8.6623 8.88976C7.05201 8.88976 5.50522 8.93573 4.02963 9.01027C3.21288 8.97429 2.41387 9.25801 1.79908 9.80243C1.1863 10.3531 0.814555 11.1267 0.765301 11.9537C0.577015 13.7643 0.491082 15.5843 0.507928 17.4048C0.459867 19.4662 0.545845 21.5285 0.765301 23.5786C0.820053 24.4047 1.18895 25.1775 1.79478 25.7351C2.09764 26.0095 2.45105 26.2208 2.8348 26.3572C3.21855 26.4936 3.62515 26.5523 4.03134 26.5299C5.80889 26.7932 7.60632 26.8942 9.40181 26.8315C10.7964 26.8398 12.1895 26.7389 13.5686 26.5299C14.1662 26.4044 14.7569 26.2479 15.3385 26.0609" stroke="var(--stroke-0, black)" stroke-width="0.99" stroke-linejoin="round"/>
</g>
<path id="Rectangle 2563" d="M4.78417 0.639035C7.42767 0.446988 10.0814 0.446988 12.7249 0.639035C13.1685 0.64361 13.5932 0.821609 13.9097 1.13568C14.0655 1.2927 14.189 1.47928 14.2733 1.6847C14.3575 1.89012 14.4007 2.1103 14.4004 2.33264C14.6104 3.43252 14.6104 4.56285 14.4004 5.66273C14.4003 6.11192 14.2239 6.5427 13.9097 6.86053C13.5862 7.16352 13.1658 7.33918 12.7249 7.35549C11.4466 7.44216 10.1512 7.4673 8.70564 7.46383C7.34844 7.46383 5.99295 7.43956 4.78417 7.35549C4.34079 7.35138 3.9162 7.17397 3.59941 6.86053C3.44353 6.70338 3.31994 6.51666 3.23572 6.31109C3.15151 6.10553 3.10833 5.8852 3.10868 5.66273C2.9069 4.56207 2.9069 3.4333 3.10868 2.33264C3.11053 2.03254 3.18946 1.7381 3.33775 1.47806C3.41025 1.35165 3.49847 1.23511 3.60027 1.13134C3.92545 0.831886 4.34456 0.657607 4.78417 0.639035V0.639035Z" fill="var(--fill-0, white)" stroke="var(--stroke-0, black)" stroke-width="0.99" stroke-miterlimit="10"/>
<path id="Rectangle 2566" d="M13.5351 21.8546C15.0009 21.7033 16.4741 21.6382 17.9473 21.6596C19.3604 21.649 20.7731 21.714 22.1793 21.8546C22.7922 21.8601 23.379 22.1056 23.8162 22.5394C24.0315 22.7564 24.2021 23.0141 24.3184 23.2979C24.4347 23.5817 24.4944 23.8859 24.494 24.1931V24.1931C24.494 24.8138 24.2499 25.409 23.8155 25.8479C23.3811 26.2868 22.792 26.5333 22.1776 26.5333C20.8736 26.6477 19.4589 26.6807 17.9456 26.6833C16.3645 26.6833 14.888 26.6529 13.5334 26.5333C12.9207 26.5283 12.3338 26.2832 11.8965 25.8495C11.6812 25.6324 11.5105 25.3744 11.3942 25.0904C11.2779 24.8065 11.2183 24.5021 11.2188 24.1948V24.1948C11.2188 23.5741 11.4628 22.9789 11.8972 22.54C12.3316 22.1012 12.9208 21.8546 13.5351 21.8546Z" fill="var(--fill-0, white)" stroke="var(--stroke-0, black)" stroke-width="0.99" stroke-miterlimit="10"/>
<path id="Rectangle 2567" d="M17.9594 21.8547H17.8325V26.5325H17.9594V21.8547Z" stroke="var(--stroke-0, black)" stroke-width="0.99" stroke-miterlimit="10"/>
<path id="Union 2" d="M7.85395 20.2475V19.1459C7.85407 19.0833 7.84197 19.0213 7.81835 18.9635C7.79473 18.9056 7.76005 18.8531 7.71631 18.8088C7.67256 18.7645 7.62061 18.7294 7.56341 18.7054C7.50621 18.6814 7.44489 18.6691 7.38297 18.6691H6.29258C5.97028 18.6691 5.66118 18.5398 5.43329 18.3096C5.20539 18.0793 5.07735 17.767 5.07735 17.4414C5.07735 17.1157 5.20539 16.8035 5.43329 16.5732C5.66118 16.343 5.97028 16.2136 6.29258 16.2136H7.3821C7.50702 16.2136 7.62683 16.1635 7.71515 16.0743C7.80348 15.985 7.8531 15.864 7.8531 15.7378V14.6362C7.8531 14.3104 7.98117 13.9981 8.20915 13.7677C8.43713 13.5374 8.74633 13.408 9.06874 13.408C9.39115 13.408 9.70036 13.5374 9.92833 13.7677C10.1563 13.9981 10.2844 14.3104 10.2844 14.6362V15.7387C10.2844 15.8649 10.334 15.9859 10.4223 16.0751C10.5107 16.1644 10.6305 16.2146 10.7554 16.2146H11.8432C12.1656 16.2146 12.4748 16.3439 12.7028 16.5742C12.9308 16.8045 13.0588 17.117 13.0588 17.4427C13.0588 17.7685 12.9308 18.0809 12.7028 18.3112C12.4748 18.5415 12.1656 18.6709 11.8432 18.6709H10.752C10.6901 18.6708 10.6288 18.683 10.5716 18.7069C10.5144 18.7308 10.4624 18.7658 10.4187 18.8101C10.3749 18.8543 10.3402 18.9067 10.3166 18.9645C10.293 19.0223 10.2809 19.0842 10.281 19.1467V20.2475C10.281 20.5732 10.1529 20.8856 9.9249 21.1159C9.69693 21.3463 9.38772 21.4757 9.06531 21.4757C8.7429 21.4757 8.4337 21.3463 8.20572 21.1159C7.97774 20.8856 7.84967 20.5732 7.84967 20.2475H7.85395Z" fill="var(--fill-0, #0066DC)" stroke="var(--stroke-0, white)" stroke-width="0.561068"/>
</g>
</svg>
