<svg preserveAspectRatio="none" width="100%" height="100%" overflow="visible" style="display: block;" viewBox="0 0 115 110" fill="none" xmlns="http://www.w3.org/2000/svg">
<path id="Path 185613" opacity="0.2" d="M7.77215 84.3243C2.83315 79.5066 0.052333 73.106 0.000187085 66.4341C-0.0263254 59.7478 2.76599 53.3207 7.77215 48.544C20.1837 33.0666 34.7678 19.2207 51.1314 7.37917C56.1427 2.71708 62.9043 0.0691725 69.9748 2.25229e-05C73.4832 -0.00441259 76.9575 0.646203 80.1933 1.91336C83.4291 3.18051 86.3617 5.03865 88.8188 7.37917C96.4866 13.1169 103.802 19.2541 110.73 25.7616C112.175 27.1179 113.587 28.5065 114.999 29.8929V77.7577C115.069 86.242 111.531 94.4048 105.162 100.451C98.7935 106.498 90.116 109.932 81.0378 110H30.9718C22.2855 102.235 14.5086 93.628 7.77215 84.3243V84.3243Z" fill="var(--fill-0, #51A87F)"/>
</svg>
