<svg preserveAspectRatio="none" width="100%" height="100%" overflow="visible" style="display: block;" viewBox="0 0 17.2 17.2" fill="none" xmlns="http://www.w3.org/2000/svg">
<path id="Icon" d="M1.02105 4.38947H16.1789M12.8105 0.6L10.2842 4.38947M6.91579 0.6L4.38947 4.38947M16.6 2.28421V14.9158C16.6 15.846 15.846 16.6 14.9158 16.6H2.28421C1.35405 16.6 0.6 15.846 0.6 14.9158V2.28421C0.6 1.35405 1.35405 0.6 2.28421 0.6H14.9158C15.846 0.6 16.6 1.35405 16.6 2.28421ZM6.91579 8.87088V11.6975C6.91579 12.362 7.64939 12.7647 8.21 12.408L10.4309 10.9947C10.9509 10.6638 10.9509 9.90467 10.4309 9.57376L8.21 8.16043C7.64939 7.80368 6.91579 8.20639 6.91579 8.87088Z" stroke="var(--stroke-0, #70829B)" stroke-width="1.2" stroke-linejoin="round"/>
</svg>
