<svg preserveAspectRatio="none" width="100%" height="100%" overflow="visible" style="display: block;" viewBox="0 0 61 10.2796" fill="none" xmlns="http://www.w3.org/2000/svg">
<g id="Group 182827">
<g id="battery">
<path id="Rectangle" d="M40.5617 9.92942C40.1613 9.71736 39.834 9.38867 39.6226 8.98642C39.34 8.38844 39.2255 7.72414 39.2914 7.06542V3.21542C39.2256 2.55703 39.3402 1.89309 39.6226 1.29542C39.8338 0.892983 40.1611 0.564229 40.5617 0.352423C41.156 0.067769 41.8166 -0.047746 42.4716 0.0184225H55.6024C56.258 -0.0482735 56.9193 0.0668965 57.5144 0.351423C57.9142 0.56338 58.2411 0.891687 58.4524 1.29342C58.7347 1.89186 58.8492 2.55639 58.7837 3.21542V7.06542C58.8496 7.72414 58.735 8.38844 58.4524 8.98642C58.2413 9.38831 57.9144 9.71667 57.5144 9.92842C56.9195 10.2125 56.2587 10.3276 55.6034 10.2614H42.4716C42.3516 10.2734 42.2316 10.2794 42.1115 10.2794C41.5755 10.28 41.046 10.1604 40.5617 9.92942V9.92942ZM59.671 3.30542C59.671 3.30542 61 3.98542 61 5.08642C61 6.18742 59.671 6.86742 59.671 6.86742V3.30542Z" fill="var(--fill-0, #252D38)"/>
<path id="Rectangle-2" d="M55.4216 1.72644H42.6548C41.7758 1.72644 41.0632 2.44278 41.0632 3.32644V6.95544C41.0632 7.8391 41.7758 8.55544 42.6548 8.55544H55.4216C56.3006 8.55544 57.0132 7.8391 57.0132 6.95544V3.32644C57.0132 2.44278 56.3006 1.72644 55.4216 1.72644Z" fill="var(--fill-0, #252D38)"/>
</g>
<path id="combinedShape" d="M11.66 9.90038C11.4103 9.89254 11.1738 9.78551 11.0025 9.60276C10.8311 9.42001 10.7388 9.17642 10.7458 8.92538V2.17538C10.7388 1.92433 10.8311 1.68075 11.0025 1.498C11.1738 1.31524 11.4103 1.20822 11.66 1.20038H12.1175C12.3672 1.20822 12.6037 1.31524 12.775 1.498C12.9464 1.68075 13.0387 1.92433 13.0317 2.17538V8.92538C13.0387 9.17642 12.9464 9.42001 12.775 9.60276C12.6037 9.78551 12.3672 9.89254 12.1175 9.90038H11.66ZM8.07883 9.90038C7.82895 9.8928 7.59226 9.78589 7.4207 9.6031C7.24913 9.42032 7.15668 9.17659 7.16365 8.92538V4.12538C7.15668 3.87417 7.24913 3.63044 7.4207 3.44765C7.59226 3.26487 7.82895 3.15796 8.07883 3.15038H8.53542C8.7853 3.15796 9.02198 3.26487 9.19355 3.44765C9.36512 3.63044 9.45756 3.87417 9.4506 4.12538V8.92538C9.45756 9.17659 9.36512 9.42032 9.19355 9.6031C9.02198 9.78589 8.7853 9.8928 8.53542 9.90038H8.07883ZM4.57628 9.90038C4.3264 9.8928 4.08972 9.78589 3.91815 9.6031C3.74658 9.42032 3.65414 9.17659 3.66111 8.92538V6.00038C3.65387 5.749 3.7462 5.50501 3.91779 5.32201C4.08939 5.13901 4.32623 5.03196 4.57628 5.02438H5.03288C5.28293 5.03196 5.51977 5.13901 5.69137 5.32201C5.86296 5.50501 5.95528 5.749 5.94805 6.00038V8.92538C5.95502 9.17659 5.86257 9.42032 5.69101 9.6031C5.51944 9.78589 5.28275 9.8928 5.03288 9.90038H4.57628ZM0.914578 9.90038C0.664875 9.89254 0.428446 9.78551 0.257091 9.60276C0.0857359 9.42001 -0.00657053 9.17642 0.000395796 8.92538V7.62538C-0.00683867 7.37416 0.0853481 7.13032 0.256731 6.94735C0.428115 6.76438 0.664698 6.65722 0.914578 6.64938H1.37217C1.62205 6.65722 1.85863 6.76438 2.03001 6.94735C2.2014 7.13032 2.29358 7.37416 2.28635 7.62538V8.92538C2.29332 9.17642 2.20101 9.42001 2.02965 9.60276C1.8583 9.78551 1.62187 9.89254 1.37217 9.90038H0.914578Z" fill="var(--fill-0, #252D38)"/>
<path id="wifi" d="M24.4774 9.97138L22.7326 8.12438C22.7059 8.09639 22.6849 8.0633 22.6711 8.02707C22.6573 7.99083 22.6508 7.95218 22.652 7.91338C22.652 7.87357 22.66 7.83416 22.6755 7.79754C22.6911 7.76093 22.7139 7.72788 22.7426 7.70038C23.2722 7.22168 23.9592 6.95683 24.6714 6.95683C25.3836 6.95683 26.0706 7.22168 26.6002 7.70038C26.6276 7.72737 26.6494 7.75958 26.6642 7.79512C26.6791 7.83066 26.6868 7.86883 26.6868 7.90738C26.688 7.98621 26.6584 8.06237 26.6042 8.11938L24.8684 9.97238C24.8436 9.99906 24.8136 10.0203 24.7804 10.0349C24.7471 10.0494 24.7112 10.0569 24.6749 10.0569C24.6386 10.0569 24.6027 10.0494 24.5694 10.0349C24.5361 10.0203 24.5062 9.99906 24.4814 9.97238L24.4774 9.97138ZM27.7323 6.81338C27.6976 6.81326 27.6633 6.80622 27.6314 6.79265C27.5994 6.77909 27.5705 6.75928 27.5462 6.73438C26.7741 5.98728 25.7441 5.56992 24.6724 5.56992C23.6007 5.56992 22.5707 5.98728 21.7985 6.73438C21.7742 6.76001 21.7449 6.7804 21.7125 6.79434C21.6801 6.80827 21.6453 6.81546 21.61 6.81546C21.5748 6.81546 21.5399 6.80827 21.5075 6.79434C21.4751 6.7804 21.4459 6.76001 21.4215 6.73438L20.4118 5.65938C20.3582 5.60254 20.3284 5.5272 20.3284 5.44888C20.3284 5.37057 20.3582 5.29523 20.4118 5.23838C21.5449 4.11174 23.0742 3.47983 24.6679 3.47983C26.2616 3.47983 27.7909 4.11174 28.924 5.23838C28.979 5.29451 29.0098 5.37012 29.0098 5.44888C29.0098 5.52765 28.979 5.60326 28.924 5.65938L27.9292 6.73138C27.9048 6.7574 27.8753 6.77817 27.8427 6.79243C27.81 6.8067 27.7748 6.81417 27.7392 6.81438L27.7323 6.81338ZM30.054 4.35038C30.019 4.35029 29.9843 4.34316 29.952 4.32942C29.9197 4.31569 29.8905 4.29562 29.866 4.27038C29.1864 3.57964 28.3773 3.03126 27.4855 2.657C26.5936 2.28275 25.6368 2.09004 24.6704 2.09004C23.704 2.09004 22.7472 2.28275 21.8553 2.657C20.9635 3.03126 20.1544 3.57964 19.4748 4.27038C19.4503 4.29583 19.4209 4.31603 19.3884 4.32978C19.3559 4.34352 19.321 4.35053 19.2858 4.35038C19.2506 4.35011 19.2159 4.3426 19.1837 4.32833C19.1516 4.31405 19.1226 4.29331 19.0988 4.26738L18.0871 3.20038C18.0329 3.14337 18.0033 3.06721 18.0045 2.98838C18.0038 2.91025 18.0334 2.8349 18.0871 2.77838C18.9452 1.89879 19.9692 1.20005 21.0992 0.723053C22.2291 0.246053 23.4424 0.000366211 24.6679 0.000366211C25.8935 0.000366211 27.1067 0.246053 28.2367 0.723053C29.3666 1.20005 30.3906 1.89879 31.2487 2.77838C31.3024 2.8349 31.332 2.91025 31.3313 2.98838C31.3318 3.06618 31.3022 3.14111 31.2487 3.19738L30.24 4.26738C30.2161 4.29357 30.187 4.31454 30.1547 4.32899C30.1224 4.34343 30.0874 4.35106 30.052 4.35138L30.054 4.35038Z" fill="var(--fill-0, #252D38)"/>
</g>
</svg>
