<svg preserveAspectRatio="none" width="100%" height="100%" overflow="visible" style="display: block;" viewBox="0 0 27.8456 27.5986" fill="none" xmlns="http://www.w3.org/2000/svg">
<g id="Group 77547">
<path id="Path 38797" d="M14.1637 27.1005C12.9268 26.9911 11.7775 26.4166 10.9477 25.4928C9.04069 23.8772 7.30821 22.0661 5.7787 20.0893C5.19156 19.4386 0.736372 14.4439 0.509733 10.3816C0.470948 9.6152 0.548217 8.8473 0.738988 8.10398C1.20917 6.58289 2.17408 5.26249 3.48049 4.35251C6.40625 2.43072 11.108 3.0689 12.8668 5.25974C13.2876 5.78591 13.7237 6.62553 14.4135 6.61957C15.1034 6.6136 15.4798 5.78459 15.9589 5.19745C17.0553 4.13115 18.4663 3.4469 19.9825 3.24634C21.4987 3.04577 23.0391 3.33957 24.375 4.08412C25.5449 4.85463 26.4343 5.98276 26.9105 7.30015C27.271 8.28444 27.4102 9.33611 27.318 10.3803C27.0761 14.6155 23.5334 18.6221 22.7826 19.4399C21.1325 21.7013 19.2359 23.7721 17.1278 25.6141C16.3574 26.4589 15.3015 26.9884 14.1637 27.1005V27.1005Z" fill="var(--fill-0, white)" stroke="var(--stroke-0, #252D38)" stroke-miterlimit="10"/>
<path id="Path 75246" d="M2.90777 16.49H5.79666L6.64994 17.6092L9.14828 11.6887L9.60096 20.4641L12.839 15.6412L15.1344 17.6092L17.4538 11.6887L17.6321 14.8934L17.9428 20.4635L20.4023 16.3023H25.3187" stroke="var(--stroke-0, #0066DC)" stroke-width="0.895877" stroke-linejoin="round"/>
<path id="Union 2" d="M13.1714 7.88829V6.6583C13.1714 6.51769 13.1156 6.38286 13.0162 6.28343C12.9167 6.18401 12.7819 6.1282 12.6413 6.1282H11.4114C11.0476 6.1282 10.6988 5.98367 10.4416 5.72648C10.1844 5.46928 10.0399 5.12044 10.0399 4.75672C10.0399 4.39299 10.1844 4.04423 10.4416 3.78704C10.6988 3.52984 11.0476 3.38532 11.4114 3.38532H12.642C12.7826 3.38532 12.9174 3.3295 13.0168 3.23008C13.1163 3.13066 13.1721 2.99574 13.1721 2.85514V1.62522C13.1681 1.44267 13.2006 1.26114 13.2677 1.09132C13.3348 0.921495 13.4351 0.76681 13.5628 0.636287C13.6905 0.505764 13.8429 0.402036 14.0112 0.331235C14.1795 0.260434 14.3603 0.223969 14.5429 0.223969C14.7255 0.223969 14.9062 0.260434 15.0745 0.331235C15.2428 0.402036 15.3953 0.505764 15.523 0.636287C15.6507 0.76681 15.751 0.921495 15.8181 1.09132C15.8852 1.26114 15.9177 1.44267 15.9136 1.62522V2.85586C15.9136 2.99647 15.9695 3.13131 16.0689 3.23073C16.1683 3.33015 16.3032 3.38596 16.4438 3.38596H17.6731C18.0368 3.38596 18.3856 3.53049 18.6428 3.78768C18.9 4.04488 19.0445 4.39372 19.0445 4.75744C19.0445 5.12117 18.9 5.46993 18.6428 5.72712C18.3856 5.98432 18.0368 6.12884 17.6731 6.12884H16.4425C16.3019 6.12884 16.167 6.18466 16.0676 6.28408C15.9682 6.3835 15.9123 6.51842 15.9123 6.65903V7.88757C15.9123 8.25129 15.7678 8.60013 15.5106 8.85733C15.2534 9.11452 14.9046 9.25905 14.5409 9.25905C14.1772 9.25905 13.8283 9.11452 13.5711 8.85733C13.3139 8.60013 13.1695 8.25129 13.1695 7.88757L13.1714 7.88829Z" fill="var(--fill-0, #0066DC)" stroke="var(--stroke-0, #252D38)" stroke-width="0.447938"/>
</g>
</svg>
