<svg preserveAspectRatio="none" width="100%" height="100%" overflow="visible" style="display: block;" viewBox="0 0 8 4.57143" fill="none" xmlns="http://www.w3.org/2000/svg">
<g id="Group">
<path id="Vector" d="M2.66025 0.913105H5.32397C6.30066 0.913105 7.09978 1.57339 7.09978 2.3804C7.09978 3.18742 6.30066 3.8477 5.32397 3.8477H2.66025C1.68356 3.8477 0.884441 3.18742 0.884441 2.3804C0.884441 1.56605 1.68356 0.913105 2.66025 0.913105Z" fill="var(--fill-0, white)"/>
<path id="Vector_2" d="M2.28571 1.14286C1.65714 1.14286 1.14286 1.65714 1.14286 2.28571C1.14286 2.91429 1.65714 3.42857 2.28571 3.42857H5.71429C6.34286 3.42857 6.85714 2.91429 6.85714 2.28571C6.85714 1.65714 6.34286 1.14286 5.71429 1.14286H2.28571ZM2.28571 0H5.71429C6.97143 0 8 1.02857 8 2.28571C8 3.54286 6.97143 4.57143 5.71429 4.57143H2.28571C1.02857 4.57143 0 3.54286 0 2.28571C0 1.01714 1.02857 0 2.28571 0Z" fill="var(--fill-0, #2E3742)"/>
</g>
</svg>
