<svg preserveAspectRatio="none" width="100%" height="100%" overflow="visible" style="display: block;" viewBox="0 0 23.3101 23.7569" fill="none" xmlns="http://www.w3.org/2000/svg">
<g id="Group 124122">
<path id="Path 186763" d="M15.7632 18.679C15.4852 18.9676 15.1527 19.1983 14.785 19.3577C14.4174 19.5171 14.0218 19.6022 13.6211 19.608C13.2203 19.6137 12.8225 19.5401 12.4504 19.3913C12.0782 19.2425 11.7393 19.0215 11.453 18.7411C7.54514 14.9367 0.207756 6.95459 3.57394 3.57531C7.26649 -0.130749 15.8743 9.53717 18.8444 13.1267C19.1322 13.4739 19.282 13.915 19.2653 14.3657C19.2485 14.8163 19.0664 15.245 18.7537 15.57L15.7632 18.679Z" fill="var(--fill-0, white)" stroke="var(--stroke-0, #252D38)" stroke-width="0.719901" stroke-miterlimit="10" stroke-linecap="round"/>
<path id="Line 812" d="M3.57499 3.57499L0.35995 0.35995" stroke="var(--stroke-0, #252D38)" stroke-width="0.719901" stroke-miterlimit="10" stroke-linecap="round"/>
<path id="Line 813" d="M4.13335 9.93846L6.86287 7.47282" stroke="var(--stroke-0, #252D38)" stroke-width="0.719901" stroke-miterlimit="10" stroke-linecap="round"/>
<path id="Line 814" d="M5.84689 11.8163L7.21144 10.5371" stroke="var(--stroke-0, #252D38)" stroke-width="0.719901" stroke-miterlimit="10" stroke-linecap="round"/>
<path id="Line 816" d="M9.05737 15.5436L10.4219 14.2643" stroke="var(--stroke-0, #252D38)" stroke-width="0.719901" stroke-miterlimit="10" stroke-linecap="round"/>
<path id="Line 815" d="M7.21246 14.0132L10.2362 11.0777" stroke="var(--stroke-0, #252D38)" stroke-width="0.719901" stroke-miterlimit="10" stroke-linecap="round"/>
<path id="Line 817" d="M10.6582 17.8392L13.682 14.9036" stroke="var(--stroke-0, #252D38)" stroke-width="0.719901" stroke-miterlimit="10" stroke-linecap="round"/>
<path id="Path 186764" d="M15.765 18.6784L18.4223 21.4291C18.4849 21.4938 18.5597 21.5456 18.6424 21.5813C18.7251 21.617 18.814 21.6359 18.9041 21.637C18.9942 21.6381 19.0836 21.6213 19.1671 21.5877C19.2507 21.554 19.3267 21.5041 19.3908 21.4409L20.7165 20.1321C20.7857 20.0637 20.8406 19.9822 20.8781 19.8925C20.9155 19.8027 20.9348 19.7064 20.9348 19.6092C20.9348 19.5119 20.9155 19.4156 20.8781 19.3259C20.8406 19.2361 20.7857 19.1547 20.7165 19.0863L17.9858 16.3711L15.765 18.6784Z" fill="var(--fill-0, #0066DC)" stroke="var(--stroke-1, #252D38)" stroke-width="0.719901" stroke-miterlimit="10" stroke-linecap="round"/>
<path id="Line 818" d="M17.4012 23.397L22.9502 18.0312" stroke="var(--stroke-0, #252D38)" stroke-width="0.719901" stroke-miterlimit="10" stroke-linecap="round"/>
</g>
</svg>
