<svg preserveAspectRatio="none" width="100%" height="100%" overflow="visible" style="display: block;" viewBox="0 0 29.2655 30.0184" fill="none" xmlns="http://www.w3.org/2000/svg">
<g id="Group 88614">
<g id="Path 154607">
<path d="M12.8448 5.07162C13.3839 4.43087 14.0018 3.86076 14.6838 3.3748C15.6425 2.58282 16.6941 1.91042 17.8153 1.37241C18.8925 0.908009 20.0403 0.628784 21.2105 0.546507C22.1009 0.447262 23.0019 0.507149 23.8714 0.723374C25.5412 1.22074 26.9668 2.32072 27.8714 3.80986C28.5361 4.96954 28.8416 6.30036 28.7494 7.63382C28.6521 8.81663 28.2836 9.96112 27.6725 10.9785C26.1945 13.7793 25.117 16.7736 24.4715 19.874C24.3175 22.4998 23.7791 25.0888 22.8734 27.5582C22.5794 28.2291 22.0483 28.768 21.3818 29.0718C20.9578 29.1983 20.5118 29.2332 20.0733 29.1741C19.6348 29.115 19.2139 28.9634 18.8386 28.7292C17.8832 28.1059 17.1947 27.1486 16.908 26.0446C16.0592 23.4018 17.3399 21.5605 16.1611 20.4717C15.9908 20.3017 15.7871 20.1689 15.5628 20.0818C15.3386 19.9947 15.0986 19.9551 14.8583 19.9656C14.4543 20.0548 14.1009 20.2978 13.8729 20.643C12.7674 22.0974 14.0363 23.8937 13.2475 26.4488C13.0054 27.5329 12.3469 28.4783 11.4141 29.0813C10.8614 29.3779 10.242 29.5282 9.61482 29.5179C8.98764 29.5075 8.37354 29.3368 7.83095 29.0221C7.422 28.7735 7.07181 28.4392 6.8045 28.0422C5.8694 26.0847 5.48428 23.9096 5.69039 21.75C5.4693 17.4476 2.61892 17.3907 0.893674 10.6911C0.406928 9.11651 0.370808 7.43709 0.789434 5.84304C1.1294 4.62875 1.78886 3.52788 2.69906 2.65518C3.60926 1.78248 4.73688 1.1699 5.96439 0.881291C7.54082 0.496498 9.19793 0.611847 10.7058 1.21134C12.0693 1.73928 13.2681 2.61964 14.18 3.76249" fill="var(--fill-0, white)"/>
<path d="M12.8448 5.07162C13.3839 4.43087 14.0018 3.86076 14.6838 3.3748C15.6425 2.58282 16.6941 1.91042 17.8153 1.37241C18.8925 0.908009 20.0403 0.628784 21.2105 0.546507C22.1009 0.447262 23.0019 0.507149 23.8714 0.723374C25.5412 1.22074 26.9668 2.32072 27.8714 3.80986C28.5361 4.96954 28.8416 6.30036 28.7494 7.63382C28.6521 8.81663 28.2836 9.96112 27.6725 10.9785C26.1945 13.7793 25.117 16.7736 24.4715 19.874C24.3175 22.4998 23.7791 25.0888 22.8734 27.5582C22.5794 28.2291 22.0483 28.768 21.3818 29.0718C20.9578 29.1983 20.5118 29.2332 20.0733 29.1741C19.6348 29.115 19.2139 28.9634 18.8386 28.7292C17.8832 28.1059 17.1947 27.1486 16.908 26.0446C16.0592 23.4018 17.3399 21.5605 16.1611 20.4717C15.9908 20.3017 15.7871 20.1689 15.5628 20.0818C15.3386 19.9947 15.0986 19.9551 14.8583 19.9656C14.4543 20.0548 14.1009 20.2978 13.8729 20.643C12.7674 22.0974 14.0363 23.8937 13.2475 26.4488C13.0054 27.5329 12.3469 28.4783 11.4141 29.0813C10.8614 29.3779 10.242 29.5282 9.61482 29.5179C8.98764 29.5075 8.37354 29.3368 7.83095 29.0221C7.422 28.7735 7.07181 28.4392 6.8045 28.0422C5.8694 26.0847 5.48428 23.9096 5.69039 21.75C5.4693 17.4476 2.61892 17.3907 0.893674 10.6911C0.406928 9.11651 0.370808 7.43709 0.789434 5.84304C1.1294 4.62875 1.78886 3.52788 2.69906 2.65518C3.60926 1.78248 4.73688 1.1699 5.96439 0.881291C7.54082 0.496498 9.19793 0.611847 10.7058 1.21134C12.0693 1.73928 13.2681 2.61964 14.18 3.76249" stroke="var(--stroke-0, #252D38)" stroke-miterlimit="9.996" stroke-linecap="round"/>
</g>
<g id="Path 180482">
<path id="Vector" d="M22.6932 9.18836C21.0472 9.18836 19.7081 7.84924 19.7081 6.20324C19.7081 4.55724 21.0472 3.21812 22.6932 3.21812C24.3392 3.21812 25.6784 4.55724 25.6784 6.20324C25.6784 7.84924 24.3392 9.18836 22.6932 9.18836Z" fill="var(--fill-0, #0066DC)"/>
<path id="Vector_2" d="M22.6931 3.61274C21.2648 3.61274 20.1027 4.77475 20.1027 6.20306C20.1027 7.63138 21.2648 8.79339 22.6931 8.79339C24.1214 8.79339 25.2834 7.63138 25.2834 6.20306C25.2834 4.77475 24.1214 3.61274 22.6931 3.61274ZM22.6931 2.82315C24.5597 2.82315 26.073 4.33639 26.073 6.20306C26.073 8.06974 24.5597 9.58298 22.6931 9.58298C20.8264 9.58298 19.3132 8.06974 19.3132 6.20306C19.3132 4.33639 20.8264 2.82315 22.6931 2.82315Z" fill="var(--fill-0, white)"/>
</g>
</g>
</svg>
