<svg preserveAspectRatio="none" width="100%" height="100%" overflow="visible" style="display: block;" viewBox="0 0 50.0912 19.7336" fill="none" xmlns="http://www.w3.org/2000/svg">
<g id="Group 104680">
<path id="Path 184915" d="M45.3331 5.59797C36.2249 2.66861 27.2463 5.59797 27.2463 5.59797C26.1093 6.07117 24.8529 6.31773 23.5786 6.31773C22.3044 6.31773 21.048 6.07117 19.911 5.59797C19.911 5.59797 10.9324 2.66861 1.82418 5.59797C1.82418 5.59797 -0.663799 6.96159 1.18107 8.11517C3.02593 9.26875 -0.356651 19.0233 11.945 19.2302C24.2467 19.437 18.5316 10.3821 23.5796 9.36034C28.6266 10.3789 22.9077 19.4362 35.2122 19.2302C47.5168 19.0241 44.1313 9.26559 45.9762 8.11122C47.821 6.95685 45.3331 5.59797 45.3331 5.59797ZM11.9949 16.319C6.35763 16.5558 5.17988 12.2423 4.95623 9.93595C4.89378 9.55601 4.9559 9.16924 5.13613 8.81567C5.31636 8.46209 5.60816 8.15456 5.98136 7.92488C10.1933 5.85064 14.7459 7.20872 16.7876 8.03226C17.1696 8.2261 17.4813 8.50078 17.6902 8.8276C17.8991 9.15442 17.9974 9.52139 17.9749 9.89015C18.0575 16.7216 11.9949 16.319 11.9949 16.319ZM34.8811 16.5069C34.8811 16.5069 28.8176 16.9088 28.902 10.0781C28.8796 9.70931 28.9779 9.34234 29.1868 9.01552C29.3956 8.6887 29.7074 8.41402 30.0894 8.22018C32.131 7.39665 36.6837 6.03777 40.8956 8.1128C41.2686 8.34228 41.5602 8.64955 41.7405 9.00284C41.9207 9.35612 41.9829 9.74259 41.9207 10.1223C41.6923 12.4302 40.5174 16.7453 34.8801 16.5069H34.8811Z" fill="var(--fill-0, white)" stroke="var(--stroke-0, #252D38)" stroke-miterlimit="10"/>
<path id="Union 2-2" d="M40.6804 10.042V8.88293C40.6804 8.60211 40.5448 8.33279 40.3034 8.13422C40.062 7.93565 39.7346 7.82409 39.3932 7.82409H37.9889C37.4413 7.81445 36.9201 7.62874 36.537 7.30676C36.1539 6.98478 35.9393 6.55216 35.9393 6.10161C35.9393 5.65107 36.1539 5.21844 36.537 4.89647C36.9201 4.57449 37.4413 4.38878 37.9889 4.37913H39.3951C39.5642 4.37924 39.7316 4.35192 39.8879 4.29875C40.0441 4.24557 40.186 4.16758 40.3056 4.06924C40.4251 3.9709 40.52 3.85413 40.5846 3.72562C40.6492 3.59711 40.6824 3.45938 40.6823 3.3203V2.16593C40.694 1.71548 40.9198 1.28674 41.3112 0.971581C41.7026 0.656424 42.2286 0.479934 42.7763 0.479934C43.324 0.479934 43.8499 0.656424 44.2413 0.971581C44.6327 1.28674 44.8585 1.71548 44.8702 2.16593V2.16593V3.32741C44.8702 3.60823 45.0058 3.87754 45.2472 4.07611C45.4886 4.27468 45.816 4.38624 46.1574 4.38624H47.5617C48.1093 4.39589 48.6305 4.5816 49.0136 4.90357C49.3967 5.22555 49.6113 5.65817 49.6113 6.10872C49.6113 6.55927 49.3967 6.99189 49.0136 7.31386C48.6305 7.63584 48.1093 7.82155 47.5617 7.8312H46.1516C45.8122 7.82973 45.486 7.93919 45.2446 8.13551C45.0032 8.33184 44.8665 8.59897 44.8645 8.87819V10.0444C44.8527 10.4949 44.627 10.9236 44.2356 11.2387C43.8441 11.5539 43.3182 11.7304 42.7705 11.7304C42.2228 11.7304 41.6969 11.5539 41.3055 11.2387C40.914 10.9236 40.6883 10.4949 40.6766 10.0444V10.0444L40.6804 10.042Z" fill="var(--fill-0, #0066DC)" stroke="var(--stroke-0, white)" stroke-width="0.959868" stroke-miterlimit="10"/>
</g>
</svg>
