<svg preserveAspectRatio="none" width="100%" height="100%" overflow="visible" style="display: block;" viewBox="0 0 25.0631 28.1137" fill="none" xmlns="http://www.w3.org/2000/svg">
<g id="Group 36847">
<path id="Path 82523" d="M21.1744 27.3847C18.543 27.5042 15.6472 27.5814 12.5246 27.5814C9.88098 27.5814 6.98347 27.5263 3.8757 27.3847C3.17925 27.3882 2.48957 27.2521 1.8498 26.9847C1.32631 26.738 1.00786 26.3972 1.00786 26.0242C0.609304 23.2783 0.460405 20.5036 0.562894 17.7323C0.524267 15.1327 0.66125 12.5336 0.972961 9.95146C0.972961 9.85991 1.03141 9.37925 1.8498 8.99017C2.51765 8.71977 3.2235 8.54835 3.94375 8.48158C4.7585 8.38798 5.57852 8.3446 6.39891 8.35182C8.07843 8.28486 10.2684 8.26704 12.6869 8.27298C15.8801 8.27721 18.7506 8.31544 21.1438 8.48158C21.8552 8.52071 22.5521 8.69341 23.1959 8.99017C23.4043 9.07455 23.5892 9.20556 23.7355 9.37262C23.8819 9.53968 23.9854 9.73809 24.0378 9.95146C24.4341 12.5953 24.5923 15.2677 24.5107 17.9383C24.5114 20.6404 24.3535 23.3404 24.0378 26.025C23.9888 26.2482 23.8819 26.4555 23.7272 26.6272C23.5725 26.7988 23.3752 26.9291 23.154 27.0058C22.5236 27.2489 21.8526 27.3774 21.1744 27.3847V27.3847Z" fill="var(--fill-0, white)" stroke="var(--stroke-0, #252D38)" stroke-width="1.06308" stroke-miterlimit="10"/>
<path id="Path 82524" d="M17.6831 27.3389C16.0935 27.4872 14.3441 27.5821 12.4587 27.5821C10.8612 27.5821 9.11102 27.5135 7.23344 27.3389C6.77594 27.3324 6.33855 27.1552 6.01197 26.8438C5.85112 26.6882 5.72341 26.5033 5.63613 26.2997C5.54885 26.096 5.50372 25.8776 5.50331 25.6571C5.22063 22.552 5.22674 19.3419 5.23372 15.7045C5.23982 12.2155 5.23372 8.77563 5.50331 5.77825C5.5087 5.33368 5.69099 4.90836 6.01197 4.59148C6.17208 4.43501 6.36238 4.31074 6.57197 4.22579C6.78156 4.14085 7.00634 4.09691 7.23344 4.09645C10.6962 3.57804 14.2203 3.57804 17.6831 4.09645C18.1406 4.10279 18.5781 4.28006 18.9046 4.59148C19.0656 4.747 19.1935 4.9319 19.2808 5.13556C19.3681 5.33921 19.4131 5.55764 19.4133 5.77825C19.6898 8.81378 19.7945 12.1578 19.7954 15.7045C19.7954 19.2885 19.6907 22.5953 19.4133 25.6571C19.4121 26.1031 19.2293 26.5305 18.9048 26.8459C18.5803 27.1614 18.1404 27.3392 17.6814 27.3405L17.6831 27.3389Z" fill="var(--fill-0, white)" stroke="var(--stroke-0, #252D38)" stroke-width="1.06308" stroke-miterlimit="10"/>
<path id="Rectangle 2626" d="M11.9322 22.5512H13.1144C13.3705 22.5688 13.609 22.684 13.7781 22.8716C13.9472 23.0593 14.0332 23.3042 14.0174 23.5531C14.0174 23.5531 14.0663 24.0829 14.0663 25.0789C14.0663 26.0749 14.0174 27.5372 14.0174 27.5372H11.0292C11.0292 27.5372 10.9698 26.0757 10.9698 25.0789C10.9698 24.082 11.0292 23.5531 11.0292 23.5531C11.0133 23.3042 11.0993 23.0593 11.2685 22.8716C11.4376 22.684 11.6761 22.5688 11.9322 22.5512V22.5512Z" fill="var(--fill-0, white)" stroke="var(--stroke-0, #252D38)" stroke-width="0.87248" stroke-miterlimit="10"/>
<path id="Rectangle 2623" d="M10.5164 11.681H9.27312C8.79126 11.681 8.40064 12.0605 8.40064 12.5286V13.7366C8.40064 14.2047 8.79126 14.5842 9.27312 14.5842H10.5164C10.9983 14.5842 11.3889 14.2047 11.3889 13.7366V12.5286C11.3889 12.0605 10.9983 11.681 10.5164 11.681Z" fill="var(--fill-0, white)" stroke="var(--stroke-0, #252D38)" stroke-width="1.06308" stroke-miterlimit="10"/>
<path id="Rectangle 2624" d="M15.9547 11.681H14.7114C14.2296 11.681 13.839 12.0605 13.839 12.5286V13.7366C13.839 14.2047 14.2296 14.5842 14.7114 14.5842H15.9547C16.4366 14.5842 16.8272 14.2047 16.8272 13.7366V12.5286C16.8272 12.0605 16.4366 11.681 15.9547 11.681Z" fill="var(--fill-0, #0066DC)"/>
<path id="Rectangle 2625" d="M10.5164 16.8916H9.27312C8.79126 16.8916 8.40064 17.2711 8.40064 17.7393V18.9472C8.40064 19.4154 8.79126 19.7949 9.27312 19.7949H10.5164C10.9983 19.7949 11.3889 19.4154 11.3889 18.9472V17.7393C11.3889 17.2711 10.9983 16.8916 10.5164 16.8916Z" fill="var(--fill-0, #0066DC)"/>
<path id="Rectangle 2627" d="M15.9547 16.8916H14.7114C14.2296 16.8916 13.839 17.2711 13.839 17.7393V18.9472C13.839 19.4154 14.2296 19.7949 14.7114 19.7949H15.9547C16.4366 19.7949 16.8272 19.4154 16.8272 18.9472V17.7393C16.8272 17.2711 16.4366 16.8916 15.9547 16.8916Z" fill="var(--fill-0, white)" stroke="var(--stroke-0, #252D38)" stroke-width="1.06308" stroke-miterlimit="10"/>
<path id="Union 2" d="M11.4896 6.04113V5.1383C11.4896 5.08703 11.4792 5.03625 11.459 4.98888C11.4387 4.94152 11.4091 4.89855 11.3717 4.86233C11.3344 4.82611 11.29 4.79734 11.2412 4.77779C11.1924 4.75825 11.1402 4.74829 11.0874 4.74841H10.1582C9.8834 4.74841 9.61987 4.64238 9.42557 4.4536C9.23127 4.26482 9.12211 4.00876 9.12211 3.74179C9.12211 3.47482 9.23127 3.21875 9.42557 3.02998C9.61987 2.8412 9.8834 2.73517 10.1582 2.73517H11.0882C11.1948 2.73517 11.2969 2.69414 11.3723 2.62104C11.4477 2.54794 11.4902 2.44877 11.4905 2.34527V1.44244C11.4905 1.17558 11.5996 0.919638 11.7938 0.73094C11.988 0.542242 12.2514 0.43624 12.5261 0.43624C12.8008 0.43624 13.0642 0.542242 13.2584 0.73094C13.4526 0.919638 13.5617 1.17558 13.5617 1.44244V2.3461C13.5617 2.39738 13.5721 2.44816 13.5924 2.49552C13.6126 2.54288 13.6422 2.58585 13.6796 2.62207C13.7169 2.65829 13.7613 2.68707 13.8101 2.70661C13.8589 2.72616 13.9112 2.73611 13.9639 2.736H14.8923C15.1618 2.7436 15.4177 2.853 15.6057 3.04094C15.7936 3.22889 15.8987 3.48059 15.8987 3.74262C15.8987 4.00464 15.7936 4.25634 15.6057 4.44429C15.4177 4.63224 15.1618 4.74163 14.8923 4.74923H13.9622C13.8557 4.74923 13.7537 4.79034 13.6784 4.86347C13.6031 4.9366 13.5609 5.03572 13.5609 5.13913V6.04113C13.5649 6.17578 13.5411 6.30983 13.4908 6.43538C13.4405 6.56092 13.3649 6.67536 13.2683 6.77199C13.1717 6.86861 13.0561 6.94542 12.9284 6.99788C12.8007 7.05033 12.6634 7.07734 12.5248 7.07734C12.3861 7.07734 12.2489 7.05033 12.1212 6.99788C11.9935 6.94542 11.8779 6.86861 11.7813 6.77199C11.6847 6.67536 11.609 6.56092 11.5588 6.43538C11.5085 6.30983 11.4847 6.17578 11.4887 6.04113V6.04113H11.4896Z" fill="var(--fill-0, #0066DC)" stroke="var(--stroke-0, white)" stroke-width="0.87248"/>
</g>
</svg>
