<svg preserveAspectRatio="none" width="100%" height="100%" overflow="visible" style="display: block;" viewBox="0 0 21.5922 30.3835" fill="none" xmlns="http://www.w3.org/2000/svg">
<g id="Group 210382">
<g id="Path 166400">
<mask id="path-1-inside-1_0_302" fill="white">
<path d="M20.4126 25.0114C20.6813 20.2073 19.6781 18.1739 18.567 17.2558C17.1285 16.0679 14.8082 16.1973 13.8031 14.3907C13.4467 13.7102 13.3063 12.9462 13.3988 12.1915L9.35425 11.8005C9.54105 12.894 9.26568 13.5776 9.02361 13.9657C8.32599 15.0853 6.78007 15.5589 6.0142 15.7927C5.10412 16.0228 4.24173 16.3974 3.46363 16.9006C3.38786 16.9523 3.31495 17.0076 3.24519 17.0663C3.03264 17.241 2.14325 18.0091 1.7276 19.9603C1.17097 22.5738 1.6381 26.4886 1.67683 26.8005"/>
</mask>
<path d="M20.4126 25.0114C20.6813 20.2073 19.6781 18.1739 18.567 17.2558C17.1285 16.0679 14.8082 16.1973 13.8031 14.3907C13.4467 13.7102 13.3063 12.9462 13.3988 12.1915L9.35425 11.8005C9.54105 12.894 9.26568 13.5776 9.02361 13.9657C8.32599 15.0853 6.78007 15.5589 6.0142 15.7927C5.10412 16.0228 4.24173 16.3974 3.46363 16.9006C3.38786 16.9523 3.31495 17.0076 3.24519 17.0663C3.03264 17.241 2.14325 18.0091 1.7276 19.9603C1.17097 22.5738 1.6381 26.4886 1.67683 26.8005" fill="var(--fill-0, white)"/>
<path d="M18.567 17.2558L19.0765 16.6391L19.0764 16.6389L18.567 17.2558ZM13.8031 14.3907L13.0944 14.7618L13.0991 14.7708L13.104 14.7796L13.8031 14.3907ZM13.3988 12.1915L14.1928 12.2888L14.2926 11.4742L13.4757 11.3952L13.3988 12.1915ZM9.35425 11.8005L9.43122 11.0043L8.38941 10.9035L8.56567 11.9353L9.35425 11.8005ZM9.02361 13.9657L8.34485 13.5423L8.34463 13.5426L9.02361 13.9657ZM6.0142 15.7927L6.21031 16.5682L6.22915 16.5635L6.24775 16.5578L6.0142 15.7927ZM3.46363 16.9006L3.02918 16.2289L3.02111 16.2341L3.01317 16.2395L3.46363 16.9006ZM3.24519 17.0663L3.75313 17.6845L3.76059 17.6782L3.24519 17.0663ZM1.7276 19.9603L0.945159 19.7937L0.945156 19.7937L1.7276 19.9603ZM20.4126 25.0114L21.2113 25.0561C21.4846 20.1712 20.4871 17.8045 19.0765 16.6391L18.567 17.2558L18.0574 17.8725C18.8691 18.5432 19.878 20.2434 19.6138 24.9667L20.4126 25.0114ZM18.567 17.2558L19.0764 16.6389C18.2259 15.9366 17.0909 15.6102 16.3107 15.3089C15.4568 14.9792 14.86 14.6449 14.5022 14.0017L13.8031 14.3907L13.104 14.7796C13.7513 15.9431 14.8171 16.4473 15.7343 16.8015C16.7251 17.1841 17.4695 17.387 18.0575 17.8726L18.567 17.2558ZM13.8031 14.3907L14.5118 14.0196C14.23 13.4813 14.1203 12.8806 14.1928 12.2888L13.3988 12.1915L12.6047 12.0942C12.4923 13.0119 12.6635 13.939 13.0944 14.7618L13.8031 14.3907ZM13.3988 12.1915L13.4757 11.3952L9.43122 11.0043L9.35425 11.8005L9.27727 12.5968L13.3218 12.9878L13.3988 12.1915ZM9.35425 11.8005L8.56567 11.9353C8.71658 12.8186 8.49262 13.3053 8.34485 13.5423L9.02361 13.9657L9.70238 14.3891C10.0387 13.8499 10.3655 12.9694 10.1428 11.6658L9.35425 11.8005ZM9.02361 13.9657L8.34463 13.5426C8.1057 13.9261 7.69093 14.2412 7.18385 14.4973C6.68287 14.7503 6.1655 14.91 5.78064 15.0275L6.0142 15.7927L6.24775 16.5578C6.62876 16.4415 7.2673 16.2476 7.90514 15.9254C8.5369 15.6064 9.2439 15.1249 9.70259 14.3887L9.02361 13.9657ZM6.0142 15.7927L5.81809 15.0171C4.82456 15.2683 3.8815 15.6776 3.02918 16.2289L3.46363 16.9006L3.89809 17.5724C4.60197 17.1171 5.38369 16.7773 6.21031 16.5682L6.0142 15.7927ZM3.46363 16.9006L3.01317 16.2395C2.91503 16.3064 2.82044 16.3781 2.72978 16.4545L3.24519 17.0663L3.76059 17.6782C3.80945 17.637 3.86068 17.5982 3.9141 17.5618L3.46363 16.9006ZM3.24519 17.0663L2.73727 16.4483C2.41688 16.7115 1.4064 17.6284 0.945159 19.7937L1.7276 19.9603L2.51005 20.127C2.88011 18.3898 3.6484 17.7705 3.7531 17.6844L3.24519 17.0663ZM1.7276 19.9603L0.945156 19.7937C0.645523 21.2005 0.62686 22.9133 0.679554 24.2744C0.732786 25.6495 0.861988 26.7305 0.882927 26.8991L1.67683 26.8005L2.47073 26.702C2.45294 26.5587 2.32921 25.5262 2.27836 24.2125C2.22696 22.8849 2.25305 21.3336 2.51005 20.127L1.7276 19.9603Z" fill="var(--stroke-0, #252D38)" mask="url(#path-1-inside-1_0_302)"/>
</g>
<g id="Path 166401">
<mask id="path-3-inside-2_0_302" fill="white">
<path d="M1.77897 27.8005C1.75352 27.8004 1.72899 27.7909 1.71001 27.7738C1.69104 27.7567 1.67892 27.7332 1.67596 27.7077C1.62363 27.256 1.1796 23.2165 1.72758 20.4807C2.09943 18.6215 2.84876 17.7393 3.26219 17.3787C3.33372 17.3145 3.40848 17.2541 3.48619 17.1976C4.20765 16.6951 5.00673 16.3166 5.85094 16.0775L6.03617 16.0184C6.76633 15.781 8.28529 15.2883 8.95589 14.143C9.31675 13.4679 9.42793 12.6855 9.26959 11.9355L9.24787 11.8005L13.4854 12.2365L13.4761 12.3399C13.384 13.1135 13.519 13.8973 13.8645 14.5942C14.4387 15.6915 15.4459 16.0825 16.5124 16.4965C17.2255 16.7737 17.9636 17.0601 18.5522 17.5775C20.0079 18.8557 20.6339 21.6284 20.4136 25.8189C20.4115 25.8465 20.399 25.8721 20.3787 25.8906C20.3583 25.9091 20.3317 25.919 20.3043 25.9183C20.2768 25.9168 20.2509 25.9043 20.2325 25.8837C20.214 25.863 20.2044 25.8359 20.2057 25.8081C20.4229 21.6866 19.8205 18.9692 18.416 17.7353C17.8555 17.2424 17.1342 16.9626 16.4374 16.6922C15.3821 16.2822 14.2913 15.8585 13.6812 14.6922C13.3305 13.9916 13.1847 13.2049 13.2607 12.4239L9.49499 12.0365C9.62961 12.7943 9.50257 13.5756 9.13505 14.2504C8.42497 15.463 6.85555 15.9734 6.1011 16.2181L5.91424 16.2782C5.08983 16.5094 4.30974 16.8785 3.60648 17.37C3.5345 17.422 3.46541 17.4779 3.39954 17.5375C3.0828 17.814 2.30522 18.6576 1.93243 20.5231C1.39076 23.2268 1.83106 27.2353 1.88314 27.6842C1.8848 27.6979 1.88376 27.7117 1.88007 27.725C1.87637 27.7382 1.8701 27.7506 1.86163 27.7614C1.85316 27.7722 1.84265 27.7812 1.8307 27.7879C1.81876 27.7946 1.80562 27.7988 1.79205 27.8003L1.77897 27.8005Z"/>
</mask>
<path d="M1.77897 27.8005C1.75352 27.8004 1.72899 27.7909 1.71001 27.7738C1.69104 27.7567 1.67892 27.7332 1.67596 27.7077C1.62363 27.256 1.1796 23.2165 1.72758 20.4807C2.09943 18.6215 2.84876 17.7393 3.26219 17.3787C3.33372 17.3145 3.40848 17.2541 3.48619 17.1976C4.20765 16.6951 5.00673 16.3166 5.85094 16.0775L6.03617 16.0184C6.76633 15.781 8.28529 15.2883 8.95589 14.143C9.31675 13.4679 9.42793 12.6855 9.26959 11.9355L9.24787 11.8005L13.4854 12.2365L13.4761 12.3399C13.384 13.1135 13.519 13.8973 13.8645 14.5942C14.4387 15.6915 15.4459 16.0825 16.5124 16.4965C17.2255 16.7737 17.9636 17.0601 18.5522 17.5775C20.0079 18.8557 20.6339 21.6284 20.4136 25.8189C20.4115 25.8465 20.399 25.8721 20.3787 25.8906C20.3583 25.9091 20.3317 25.919 20.3043 25.9183C20.2768 25.9168 20.2509 25.9043 20.2325 25.8837C20.214 25.863 20.2044 25.8359 20.2057 25.8081C20.4229 21.6866 19.8205 18.9692 18.416 17.7353C17.8555 17.2424 17.1342 16.9626 16.4374 16.6922C15.3821 16.2822 14.2913 15.8585 13.6812 14.6922C13.3305 13.9916 13.1847 13.2049 13.2607 12.4239L9.49499 12.0365C9.62961 12.7943 9.50257 13.5756 9.13505 14.2504C8.42497 15.463 6.85555 15.9734 6.1011 16.2181L5.91424 16.2782C5.08983 16.5094 4.30974 16.8785 3.60648 17.37C3.5345 17.422 3.46541 17.4779 3.39954 17.5375C3.0828 17.814 2.30522 18.6576 1.93243 20.5231C1.39076 23.2268 1.83106 27.2353 1.88314 27.6842C1.8848 27.6979 1.88376 27.7117 1.88007 27.725C1.87637 27.7382 1.8701 27.7506 1.86163 27.7614C1.85316 27.7722 1.84265 27.7812 1.8307 27.7879C1.81876 27.7946 1.80562 27.7988 1.79205 27.8003L1.77897 27.8005Z" fill="var(--fill-0, black)"/>
<path d="M1.77897 27.8005L1.77454 28.8005L1.78568 28.8006L1.79682 28.8004L1.77897 27.8005ZM1.67596 27.7077L0.682596 27.8228L0.682664 27.8234L1.67596 27.7077ZM1.72758 20.4807L2.7081 20.6771L2.70816 20.6768L1.72758 20.4807ZM3.26219 17.3787L3.91947 18.1324L3.92486 18.1277L3.93017 18.1229L3.26219 17.3787ZM3.48619 17.1976L2.91462 16.3771L2.90646 16.3827L2.89841 16.3886L3.48619 17.1976ZM5.85094 16.0775L6.12342 17.0397L6.13927 17.0352L6.15497 17.0302L5.85094 16.0775ZM6.03617 16.0184L6.34021 16.9711L6.34536 16.9694L6.03617 16.0184ZM8.95589 14.143L9.81885 14.6483L9.82865 14.6315L9.83779 14.6144L8.95589 14.143ZM9.26959 11.9355L8.28229 12.0944L8.28614 12.1183L8.29115 12.142L9.26959 11.9355ZM9.24787 11.8005L9.3502 10.8058L8.05342 10.6724L8.26057 11.9594L9.24787 11.8005ZM13.4854 12.2365L14.4814 12.3265L14.5703 11.3428L13.5878 11.2417L13.4854 12.2365ZM13.4761 12.3399L14.4691 12.4582L14.4708 12.444L14.472 12.4299L13.4761 12.3399ZM13.8645 14.5942L12.9686 15.0384L12.9734 15.0482L12.9785 15.0578L13.8645 14.5942ZM16.5124 16.4965L16.8747 15.5644L16.8743 15.5643L16.5124 16.4965ZM18.5522 17.5775L17.892 18.3286L17.8924 18.3289L18.5522 17.5775ZM20.4136 25.8189L21.4107 25.8945L21.4116 25.883L21.4122 25.8714L20.4136 25.8189ZM20.3043 25.9183L20.2491 26.9168L20.2631 26.9175L20.2771 26.9179L20.3043 25.9183ZM20.2057 25.8081L19.2071 25.7554L19.2069 25.76L20.2057 25.8081ZM18.416 17.7353L17.7557 18.4863L17.756 18.4866L18.416 17.7353ZM16.4374 16.6922L16.0752 17.6243L16.0756 17.6245L16.4374 16.6922ZM13.6812 14.6922L12.7869 15.1398L12.7909 15.1478L12.7951 15.1557L13.6812 14.6922ZM13.2607 12.4239L14.256 12.5208L14.3524 11.531L13.3631 11.4292L13.2607 12.4239ZM9.49499 12.0365L9.59733 11.0418L8.2785 10.9061L8.51041 12.2114L9.49499 12.0365ZM9.13505 14.2504L9.99799 14.7557L10.0058 14.7423L10.0132 14.7287L9.13505 14.2504ZM6.1011 16.2181L6.40709 17.1701L6.40961 17.1693L6.1011 16.2181ZM5.91424 16.2782L6.18428 17.241L6.20236 17.2359L6.22023 17.2302L5.91424 16.2782ZM3.60648 17.37L3.03359 16.5504L3.02743 16.5547L3.02134 16.5591L3.60648 17.37ZM3.39954 17.5375L4.05717 18.2908L4.06388 18.285L4.07048 18.279L3.39954 17.5375ZM1.93243 20.5231L2.91295 20.7195L2.91304 20.7191L1.93243 20.5231ZM1.88314 27.6842L0.889796 27.7995L0.890431 27.8047L1.88314 27.6842ZM1.79205 27.8003L1.8099 28.8001L1.85669 28.7993L1.90319 28.7941L1.79205 27.8003ZM1.77897 27.8005L1.78339 26.8005C2.00462 26.8015 2.21651 26.8842 2.37932 27.0308L1.71001 27.7738L1.04071 28.5168C1.24147 28.6977 1.50242 28.7993 1.77454 28.8005L1.77897 27.8005ZM1.71001 27.7738L2.37932 27.0308C2.5419 27.1773 2.64423 27.3772 2.66925 27.5921L1.67596 27.7077L0.682664 27.8234C0.713616 28.0893 0.840176 28.3362 1.04071 28.5168L1.71001 27.7738ZM1.67596 27.7077L2.66931 27.5927C2.61439 27.1185 2.19594 23.2341 2.7081 20.6771L1.72758 20.4807L0.747054 20.2843C0.163268 23.1989 0.63288 27.3936 0.682597 27.8228L1.67596 27.7077ZM1.72758 20.4807L2.70816 20.6768C3.03811 19.0272 3.67763 18.3433 3.91947 18.1324L3.26219 17.3787L2.6049 16.6251C2.01988 17.1353 1.16076 18.2159 0.747 20.2846L1.72758 20.4807ZM3.26219 17.3787L3.93017 18.1229C3.97613 18.0817 4.02413 18.0429 4.07396 18.0066L3.48619 17.1976L2.89841 16.3886C2.79284 16.4653 2.69131 16.5474 2.59421 16.6346L3.26219 17.3787ZM3.48619 17.1976L4.05775 18.0182C4.68826 17.579 5.3863 17.2484 6.12342 17.0397L5.85094 16.0775L5.57846 15.1153C4.62716 15.3847 3.72703 15.8112 2.91462 16.3771L3.48619 17.1976ZM5.85094 16.0775L6.15497 17.0302L6.3402 16.9711L6.03617 16.0184L5.73213 15.0657L5.5469 15.1248L5.85094 16.0775ZM6.03617 16.0184L6.34536 16.9694C6.70767 16.8516 7.34743 16.6458 7.98908 16.3034C8.62449 15.9644 9.35211 15.4454 9.81885 14.6483L8.95589 14.143L8.09294 13.6377C7.88908 13.9859 7.52192 14.2858 7.04765 14.5389C6.57963 14.7886 6.09483 14.9478 5.72697 15.0674L6.03617 16.0184ZM8.95589 14.143L9.83779 14.6144C10.3098 13.7314 10.4549 12.7089 10.248 11.7289L9.26959 11.9355L8.29115 12.142C8.40095 12.6622 8.3237 13.2044 8.07399 13.6715L8.95589 14.143ZM9.26959 11.9355L10.2569 11.7766L10.2352 11.6416L9.24787 11.8005L8.26057 11.9594L8.28229 12.0944L9.26959 11.9355ZM9.24787 11.8005L9.14553 12.7953L13.3831 13.2312L13.4854 12.2365L13.5878 11.2417L9.3502 10.8058L9.24787 11.8005ZM13.4854 12.2365L12.4895 12.1465L12.4802 12.2499L13.4761 12.3399L14.472 12.4299L14.4814 12.3265L13.4854 12.2365ZM13.4761 12.3399L12.4831 12.2216C12.368 13.1878 12.5366 14.1671 12.9686 15.0384L13.8645 14.5942L14.7605 14.15C14.5014 13.6275 14.3999 13.0391 14.4691 12.4582L13.4761 12.3399ZM13.8645 14.5942L12.9785 15.0578C13.7509 16.5341 15.1323 17.0334 16.1505 17.4287L16.5124 16.4965L16.8743 15.5643C15.7594 15.1315 15.1264 14.8489 14.7506 14.1306L13.8645 14.5942ZM16.5124 16.4965L16.1501 17.4285C16.8935 17.7175 17.4587 17.9477 17.892 18.3286L18.5522 17.5775L19.2124 16.8264C18.4685 16.1725 17.5575 15.8298 16.8747 15.5644L16.5124 16.4965ZM18.5522 17.5775L17.8924 18.3289C18.4035 18.7777 18.851 19.5644 19.1359 20.8263C19.4195 22.0819 19.5224 23.7232 19.415 25.7664L20.4136 25.8189L21.4122 25.8714C21.5251 23.7241 21.4251 21.8838 21.0868 20.3858C20.75 18.8942 20.1566 17.6555 19.212 16.8261L18.5522 17.5775ZM20.4136 25.8189L19.4165 25.7433C19.4336 25.5174 19.5363 25.305 19.7059 25.1507L20.3787 25.8906L21.0514 26.6305C21.2617 26.4393 21.3894 26.1755 21.4107 25.8945L20.4136 25.8189ZM20.3787 25.8906L19.7059 25.1507C19.8758 24.9963 20.0997 24.9124 20.3315 24.9187L20.3043 25.9183L20.2771 26.9179C20.5636 26.9257 20.8408 26.822 21.0514 26.6305L20.3787 25.8906ZM20.3043 25.9183L20.3595 24.9198C20.5983 24.933 20.8203 25.0409 20.9779 25.2171L20.2325 25.8837L19.4871 26.5503C19.6815 26.7678 19.9552 26.9005 20.2491 26.9168L20.3043 25.9183ZM20.2325 25.8837L20.9779 25.2171C21.1351 25.3929 21.2158 25.6227 21.2046 25.8562L20.2057 25.8081L19.2069 25.76C19.193 26.049 19.2928 26.3331 19.4871 26.5503L20.2325 25.8837ZM20.2057 25.8081L21.2043 25.8607C21.3156 23.7491 21.2209 21.9411 20.8953 20.4724C20.5715 19.0117 19.9982 17.7942 19.076 16.984L18.416 17.7353L17.756 18.4866C18.2383 18.9103 18.6685 19.6684 18.9427 20.9053C19.2152 22.1341 19.313 23.7455 19.2071 25.7554L20.2057 25.8081ZM18.416 17.7353L19.0764 16.9843C18.3594 16.3539 17.4628 16.0175 16.7992 15.7599L16.4374 16.6922L16.0756 17.6245C16.8055 17.9077 17.3515 18.1308 17.7557 18.4863L18.416 17.7353ZM16.4374 16.6922L16.7996 15.7601C15.699 15.3325 14.9797 15.0172 14.5673 14.2287L13.6812 14.6922L12.7951 15.1557C13.6028 16.6998 15.0652 17.2319 16.0752 17.6243L16.4374 16.6922ZM13.6812 14.6922L14.5754 14.2446C14.3092 13.7127 14.1982 13.1148 14.256 12.5208L13.2607 12.4239L12.2654 12.3271C12.1712 13.2951 12.3519 14.2706 12.7869 15.1398L13.6812 14.6922ZM13.2607 12.4239L13.3631 11.4292L9.59733 11.0418L9.49499 12.0365L9.39265 13.0313L13.1584 13.4187L13.2607 12.4239ZM9.49499 12.0365L8.51041 12.2114C8.60539 12.7461 8.5156 13.297 8.25687 13.772L9.13505 14.2504L10.0132 14.7287C10.4895 13.8542 10.6538 12.8425 10.4796 11.8616L9.49499 12.0365ZM9.13505 14.2504L8.2721 13.7451C8.04616 14.1309 7.65242 14.452 7.16071 14.7167C6.67363 14.9789 6.17131 15.1441 5.79258 15.2669L6.1011 16.2181L6.40961 17.1693C6.78534 17.0475 7.44496 16.8351 8.10872 16.4778C8.76785 16.1229 9.51386 15.5825 9.99799 14.7557L9.13505 14.2504ZM6.1011 16.2181L5.79511 15.2661L5.60825 15.3261L5.91424 16.2782L6.22023 17.2302L6.40709 17.1701L6.1011 16.2181ZM5.91424 16.2782L5.64419 15.3153C4.71126 15.577 3.82882 15.9945 3.03359 16.5504L3.60648 17.37L4.17938 18.1896C4.79066 17.7624 5.46839 17.4418 6.18428 17.241L5.91424 16.2782ZM3.60648 17.37L3.02134 16.5591C2.91947 16.6326 2.82174 16.7117 2.7286 16.796L3.39954 17.5375L4.07048 18.279C4.10909 18.244 4.14953 18.2113 4.19162 18.181L3.60648 17.37ZM3.39954 17.5375L2.7419 16.7841C2.26435 17.201 1.36922 18.2384 0.951817 20.3271L1.93243 20.5231L2.91304 20.7191C3.24122 19.0768 3.90126 18.4269 4.05717 18.2908L3.39954 17.5375ZM1.93243 20.5231L0.951913 20.3267C0.374393 23.2093 0.840341 27.3731 0.88981 27.7995L1.88314 27.6842L2.87648 27.5689C2.82177 27.0975 2.40713 23.2443 2.91295 20.7195L1.93243 20.5231ZM1.88314 27.6842L0.890431 27.8047C0.876288 27.6882 0.885192 27.5699 0.916724 27.4567L1.88007 27.725L2.84341 27.9933C2.88232 27.8535 2.89332 27.7076 2.87586 27.5637L1.88314 27.6842ZM1.88007 27.725L0.916724 27.4567C0.948316 27.3433 1.00201 27.237 1.07488 27.1442L1.86163 27.7614L2.64839 28.3787C2.7382 28.2642 2.80443 28.1332 2.84341 27.9933L1.88007 27.725ZM1.86163 27.7614L1.07488 27.1442C1.14792 27.0511 1.23894 26.973 1.34296 26.9149L1.8307 27.7879L2.31845 28.6609C2.44635 28.5894 2.5584 28.4934 2.64839 28.3787L1.86163 27.7614ZM1.8307 27.7879L1.34296 26.9149C1.4469 26.8568 1.56175 26.8198 1.6809 26.8065L1.79205 27.8003L1.90319 28.7941C2.04949 28.7777 2.19062 28.7323 2.31845 28.6609L1.8307 27.7879ZM1.79205 27.8003L1.77419 26.8005L1.76111 26.8007L1.77897 27.8005L1.79682 28.8004L1.8099 28.8001L1.79205 27.8003Z" fill="var(--stroke-0, #252D38)" mask="url(#path-3-inside-2_0_302)"/>
</g>
<g id="Group 18">
<path id="Path 166405" d="M7.26865 7.36368C7.22284 8.14536 7.30904 8.92855 7.5245 9.68009C7.0869 9.47134 6.76983 9.17602 6.57529 8.87149C6.34621 8.51272 6.29452 8.1576 6.38486 7.92032C6.46983 7.69723 6.68992 7.55228 6.92392 7.46134C7.05276 7.4113 7.17753 7.38152 7.26865 7.36368Z" fill="var(--fill-0, white)" stroke="var(--stroke-0, #252D38)" stroke-width="0.233523"/>
<g id="Path 166406">
<mask id="path-6-inside-3_0_302" fill="white">
<path d="M7.87351 10.0587L7.67313 9.98399C7.0571 9.77602 6.5475 9.32941 6.25585 8.74188C6.18519 8.60411 6.14207 8.45357 6.12898 8.29889C6.11588 8.14421 6.13306 7.98843 6.17952 7.84048C6.39975 7.26205 7.21954 7.13992 7.38188 7.12077L7.5064 7.10652L7.49626 7.23309C7.42535 8.11853 7.53082 9.00938 7.80641 9.85275L7.87351 10.0587ZM7.28134 7.34682C7.03528 7.39352 6.51667 7.53363 6.37208 7.91498C6.30017 8.16155 6.3258 8.42678 6.44357 8.65455C6.67528 9.12598 7.06583 9.49796 7.54468 9.7033C7.32254 8.93923 7.23343 8.14183 7.28134 7.34682V7.34682Z"/>
</mask>
<path d="M7.87351 10.0587L7.67313 9.98399C7.0571 9.77602 6.5475 9.32941 6.25585 8.74188C6.18519 8.60411 6.14207 8.45357 6.12898 8.29889C6.11588 8.14421 6.13306 7.98843 6.17952 7.84048C6.39975 7.26205 7.21954 7.13992 7.38188 7.12077L7.5064 7.10652L7.49626 7.23309C7.42535 8.11853 7.53082 9.00938 7.80641 9.85275L7.87351 10.0587ZM7.28134 7.34682C7.03528 7.39352 6.51667 7.53363 6.37208 7.91498C6.30017 8.16155 6.3258 8.42678 6.44357 8.65455C6.67528 9.12598 7.06583 9.49796 7.54468 9.7033C7.32254 8.93923 7.23343 8.14183 7.28134 7.34682V7.34682Z" fill="var(--fill-0, black)"/>
<path d="M7.87351 10.0587L7.69881 10.5272L8.67 10.8894L8.34892 9.90384L7.87351 10.0587ZM7.67313 9.98399L7.84783 9.51551L7.84048 9.51277L7.83306 9.51026L7.67313 9.98399ZM6.25585 8.74188L6.70375 8.51955L6.70075 8.5137L6.25585 8.74188ZM6.17952 7.84048L5.71224 7.66258L5.70696 7.67647L5.7025 7.69065L6.17952 7.84048ZM7.38188 7.12077L7.32504 6.624L7.32331 6.62421L7.38188 7.12077ZM7.5064 7.10652L8.0048 7.14645L8.05333 6.54069L7.44956 6.60976L7.5064 7.10652ZM7.49626 7.23309L6.99785 7.19316L6.99785 7.19318L7.49626 7.23309ZM7.80641 9.85275L8.28182 9.69787L8.28168 9.69745L7.80641 9.85275ZM6.37208 7.91498L5.90456 7.73772L5.89759 7.7561L5.89208 7.77498L6.37208 7.91498ZM6.44357 8.65455L6.89238 8.43394L6.88771 8.42491L6.44357 8.65455ZM7.54468 9.7033L7.34762 10.1628L8.32025 10.5799L8.0248 9.56371L7.54468 9.7033ZM7.87351 10.0587L8.04822 9.59023L7.84783 9.51551L7.67313 9.98399L7.49842 10.4525L7.69881 10.5272L7.87351 10.0587ZM7.67313 9.98399L7.83306 9.51026C7.34376 9.34507 6.93705 8.98964 6.70371 8.51956L6.25585 8.74188L5.808 8.9642C6.15795 9.66918 6.77045 10.207 7.51319 10.4577L7.67313 9.98399ZM6.25585 8.74188L6.70075 8.5137C6.65988 8.43402 6.63481 8.34668 6.62719 8.2567L6.12898 8.29889L5.63076 8.34108C5.64934 8.56046 5.7105 8.7742 5.81096 8.97007L6.25585 8.74188ZM6.12898 8.29889L6.62719 8.2567C6.61957 8.16672 6.62958 8.07617 6.65655 7.99032L6.17952 7.84048L5.7025 7.69065C5.63653 7.90068 5.61218 8.12169 5.63076 8.34108L6.12898 8.29889ZM6.17952 7.84048L6.6468 8.01839C6.68527 7.91735 6.79388 7.81604 6.99458 7.73249C7.1857 7.65292 7.37901 7.62457 7.44045 7.61732L7.38188 7.12077L7.32331 6.62421C7.2224 6.63611 6.92465 6.6784 6.61024 6.8093C6.3054 6.93621 5.894 7.18518 5.71224 7.66258L6.17952 7.84048ZM7.38188 7.12077L7.43871 7.61753L7.56323 7.60328L7.5064 7.10652L7.44956 6.60976L7.32504 6.62401L7.38188 7.12077ZM7.5064 7.10652L7.00799 7.06659L6.99785 7.19316L7.49626 7.23309L7.99466 7.27302L8.0048 7.14645L7.5064 7.10652ZM7.49626 7.23309L6.99785 7.19318C6.92166 8.14451 7.03497 9.10171 7.33115 10.0081L7.80641 9.85275L8.28168 9.69745C8.02667 8.91705 7.92903 8.09256 7.99466 7.27301L7.49626 7.23309ZM7.80641 9.85275L7.33101 10.0076L7.39811 10.2136L7.87351 10.0587L8.34892 9.90384L8.28182 9.69787L7.80641 9.85275ZM7.28134 7.34682L7.18809 6.85559C7.04424 6.88289 6.80298 6.94017 6.56647 7.05749C6.3368 7.17141 6.04115 7.37746 5.90456 7.73772L6.37208 7.91498L6.8396 8.09224C6.8476 8.07115 6.88355 8.01647 7.01084 7.95333C7.13131 7.89358 7.27238 7.85744 7.37458 7.83804L7.28134 7.34682ZM6.37208 7.91498L5.89208 7.77498C5.78429 8.14456 5.82258 8.54216 5.99942 8.88418L6.44357 8.65455L6.88771 8.42491C6.82902 8.31139 6.81605 8.17853 6.85208 8.05497L6.37208 7.91498ZM6.44357 8.65455L5.99484 8.8751C6.27875 9.45271 6.75806 9.91001 7.34762 10.1628L7.54468 9.7033L7.74174 9.24377C7.37361 9.0859 7.07182 8.79924 6.89229 8.43399L6.44357 8.65455ZM7.54468 9.7033L8.0248 9.56371C7.81868 8.85474 7.73597 8.11474 7.78043 7.37689L7.28134 7.34682L6.78224 7.31674C6.73089 8.16893 6.8264 9.02372 7.06456 9.84289L7.54468 9.7033Z" fill="var(--stroke-0, #252D38)" mask="url(#path-6-inside-3_0_302)"/>
</g>
</g>
<g id="Group 19">
<path id="Path 166407" d="M15.2299 6.86053C15.3224 6.86779 15.4503 6.88278 15.5844 6.91815C15.7957 6.97392 15.9998 7.07138 16.1186 7.23651L16.1644 7.3117C16.2773 7.5369 16.2603 7.89528 16.0678 8.2785C15.9043 8.60368 15.618 8.93324 15.2035 9.19061C15.3433 8.42111 15.3527 7.63354 15.2299 6.86053Z" fill="var(--fill-0, white)" stroke="var(--stroke-0, #252D38)" stroke-width="0.233523"/>
<g id="Path 166408">
<mask id="path-9-inside-4_0_302" fill="white">
<path d="M14.8956 9.60932L14.9417 9.39518C15.1318 8.52735 15.1488 7.62979 14.9917 6.7552L14.9687 6.6326H15.0923H15.0957C15.2129 6.6326 16.0788 6.65222 16.3603 7.21221C16.4824 7.49753 16.488 7.82018 16.3758 8.10964C16.145 8.72993 15.6823 9.23327 15.0879 9.51078L14.8956 9.60932ZM15.2184 6.84628C15.3447 7.63253 15.335 8.43504 15.1898 9.21794C15.6475 8.95789 15.9989 8.54156 16.1814 8.04332C16.2741 7.80638 16.2729 7.54235 16.1779 7.30632C15.9971 6.94529 15.4619 6.86473 15.2175 6.84628H15.2184Z"/>
</mask>
<path d="M14.8956 9.60932L14.9417 9.39518C15.1318 8.52735 15.1488 7.62979 14.9917 6.7552L14.9687 6.6326H15.0923H15.0957C15.2129 6.6326 16.0788 6.65222 16.3603 7.21221C16.4824 7.49753 16.488 7.82018 16.3758 8.10964C16.145 8.72993 15.6823 9.23327 15.0879 9.51078L14.8956 9.60932ZM15.2184 6.84628C15.3447 7.63253 15.335 8.43504 15.1898 9.21794C15.6475 8.95789 15.9989 8.54156 16.1814 8.04332C16.2741 7.80638 16.2729 7.54235 16.1779 7.30632C15.9971 6.94529 15.4619 6.86473 15.2175 6.84628H15.2184Z" fill="var(--fill-0, black)"/>
<path d="M14.8956 9.60932L14.4068 9.50404L14.1846 10.5354L15.1236 10.0543L14.8956 9.60932ZM14.9417 9.39518L14.4533 9.28818L14.4529 9.2899L14.9417 9.39518ZM14.9917 6.7552L15.4839 6.6668L15.4831 6.6628L14.9917 6.7552ZM14.9687 6.6326V6.1326H14.3659L14.4773 6.72501L14.9687 6.6326ZM16.3603 7.21221L16.82 7.01555L16.814 7.00138L16.8071 6.9876L16.3603 7.21221ZM16.3758 8.10964L15.9095 7.92896L15.9072 7.93528L16.3758 8.10964ZM15.0879 9.51078L14.8764 9.05771L14.8681 9.0616L14.8599 9.06579L15.0879 9.51078ZM15.2184 6.84628L15.7121 6.76698L15.6445 6.34628H15.2184V6.84628ZM15.1898 9.21794L14.6982 9.12676L14.5021 10.1838L15.4368 9.65266L15.1898 9.21794ZM16.1814 8.04332L15.7157 7.86108L15.7119 7.87136L16.1814 8.04332ZM16.1779 7.30632L16.6418 7.11975L16.6342 7.10075L16.625 7.08244L16.1779 7.30632ZM15.2175 6.84628V6.34628L15.1799 7.34486L15.2175 6.84628ZM14.8956 9.60932L15.3844 9.7146L15.4305 9.50046L14.9417 9.39518L14.4529 9.2899L14.4068 9.50404L14.8956 9.60932ZM14.9417 9.39518L15.4301 9.50219C15.6343 8.57008 15.6526 7.60612 15.4839 6.6668L14.9917 6.7552L14.4996 6.8436C14.6451 7.65346 14.6293 8.48461 14.4533 9.28818L14.9417 9.39518ZM14.9917 6.7552L15.4831 6.6628L15.4601 6.5402L14.9687 6.6326L14.4773 6.72501L14.5003 6.84761L14.9917 6.7552ZM14.9687 6.6326V7.1326H15.0923V6.6326V6.1326H14.9687V6.6326ZM15.0923 6.6326V7.1326H15.0957V6.6326V6.1326H15.0923V6.6326ZM15.0957 6.6326V7.1326C15.134 7.1326 15.3279 7.13661 15.531 7.19373C15.747 7.25448 15.8669 7.34392 15.9136 7.43682L16.3603 7.21221L16.8071 6.9876C16.5722 6.5205 16.1184 6.32014 15.8018 6.23109C15.4722 6.1384 15.1746 6.1326 15.0957 6.1326V6.6326ZM16.3603 7.21221L15.9006 7.40886C15.9713 7.57405 15.9746 7.76127 15.9096 7.92898L16.3758 8.10964L16.842 8.2903C17.0014 7.87909 16.9935 7.42101 16.82 7.01555L16.3603 7.21221ZM16.3758 8.10964L15.9072 7.93528C15.7217 8.43374 15.3507 8.8363 14.8764 9.05771L15.0879 9.51078L15.2994 9.96384C16.014 9.63024 16.5683 9.02612 16.8444 8.284L16.3758 8.10964ZM15.0879 9.51078L14.8599 9.06579L14.6676 9.16434L14.8956 9.60932L15.1236 10.0543L15.3159 9.95576L15.0879 9.51078ZM15.2184 6.84628L14.7247 6.92557C14.8419 7.65531 14.833 8.40015 14.6982 9.12676L15.1898 9.21794L15.6814 9.30912C15.8371 8.46993 15.8474 7.60976 15.7121 6.76698L15.2184 6.84628ZM15.1898 9.21794L15.4368 9.65266C15.9983 9.33361 16.4281 8.8237 16.6509 8.21527L16.1814 8.04332L15.7119 7.87136C15.5698 8.25943 15.2966 8.58218 14.9428 8.78322L15.1898 9.21794ZM16.1814 8.04332L16.647 8.22551C16.7862 7.86993 16.7843 7.47399 16.6418 7.11975L16.1779 7.30632L15.714 7.49289C15.7614 7.6107 15.7621 7.74284 15.7158 7.86113L16.1814 8.04332ZM16.1779 7.30632L16.625 7.08244C16.4514 6.73569 16.1307 6.56407 15.8915 6.4776C15.6439 6.38811 15.3983 6.3585 15.2551 6.34769L15.2175 6.84628L15.1799 7.34486C15.2811 7.3525 15.4253 7.3724 15.5516 7.41806C15.6863 7.46675 15.7237 7.51592 15.7309 7.5302L16.1779 7.30632ZM15.2175 6.84628V7.34628H15.2184V6.84628V6.34628H15.2175V6.84628Z" fill="var(--stroke-0, #252D38)" mask="url(#path-9-inside-4_0_302)"/>
</g>
</g>
<path id="Ellipse 7" d="M11.0504 2.08096C12.0666 2.03533 13.038 2.59131 13.7826 3.57709C14.5264 4.5619 15.0276 5.95865 15.0966 7.53384C15.1655 9.10901 14.7884 10.5452 14.1336 11.5928C13.478 12.6415 12.5591 13.2824 11.5429 13.328C10.5269 13.3735 9.55627 12.8175 8.81177 11.8318C8.06788 10.847 7.56577 9.45033 7.49679 7.87511C7.42783 6.29992 7.8059 4.86369 8.46077 3.81606C9.1162 2.76761 10.0345 2.12672 11.0504 2.08096Z" fill="var(--fill-0, white)" stroke="var(--stroke-0, #252D38)" stroke-width="0.45"/>
<g id="Group 529-2">
<path id="Path 76-2" d="M20.3547 23.116C20.3758 23.97 20.2654 24.8225 20.0237 25.6414L20.0227 25.6473C19.8559 26.3403 19.5476 26.9902 19.1184 27.5555L19.1174 27.5564C18.7592 28.039 18.2931 28.4264 17.759 28.6883L17.5266 28.7928C16.9277 29.0239 16.2786 29.0888 15.6467 28.9803V28.9793L15.6331 28.9783L11.262 28.7527L5.45727 27.7967L5.18774 27.1961L16.1028 26.2322L16.1243 26.2303L16.1428 26.2215L17.0784 25.7801L17.1223 25.7596L17.1379 25.7147L17.4993 24.7254L17.5051 24.7098L17.5061 24.6941L17.6135 23.1961L20.3547 23.116Z" fill="var(--fill-0, white)" stroke="var(--stroke-0, #252D38)" stroke-width="0.233523"/>
</g>
<g id="Path 184949">
<path d="M5.14855 25.3321C7.24978 25.4621 16.3912 26.261 16.6038 27.2902C16.7337 27.9207 15.7414 28.271 14.822 28.454C13.5846 28.7046 12.3523 28.9788 11.1363 29.3314C7.73127 30.3194 2.52478 29.4304 1.13288 28.235C-0.80416 26.5723 1.59754 20.2109 2.6108 18.4504C2.6108 18.4504 3.39023 15.7016 7.99854 15.2871" fill="var(--fill-0, white)"/>
<path d="M5.14855 25.3321C7.24978 25.4621 16.3912 26.261 16.6038 27.2902C16.7337 27.9207 15.7414 28.271 14.822 28.454C13.5846 28.7046 12.3523 28.9788 11.1363 29.3314C7.73127 30.3194 2.52478 29.4304 1.13288 28.235C-0.80416 26.5723 1.59754 20.2109 2.6108 18.4504C2.6108 18.4504 3.39023 15.7016 7.99854 15.2871" stroke="var(--stroke-0, #252D38)" stroke-width="0.8" stroke-miterlimit="10" stroke-linecap="round"/>
</g>
<g id="Path 184950">
<path d="M14.1144 15.2119C14.1144 15.2119 18.824 15.9648 20.0639 17.7807C21.7316 20.2247 21.2132 25.6994 20.6385 27.6564C20.2103 29.1161 18.604 30.0516 15.4759 29.9797C13.2621 29.9269 9.34076 28.2929 7.38942 27.1001C5.15053 25.7314 3.35185 24.3424 6.09806 24.7852C6.09806 24.7852 11.8836 25.9624 16.7213 25.6971C16.9391 25.6871 17.1485 25.6091 17.3208 25.4738C17.493 25.3385 17.6197 25.1525 17.6834 24.9414C17.8467 24.3653 17.9066 23.3665 17.4743 21.6826" fill="var(--fill-0, white)"/>
<path d="M14.1144 15.2119C14.1144 15.2119 18.824 15.9648 20.0639 17.7807C21.7316 20.2247 21.2132 25.6994 20.6385 27.6564C20.2103 29.1161 18.604 30.0516 15.4759 29.9797C13.2621 29.9269 9.34076 28.2929 7.38942 27.1001C5.15053 25.7314 3.35185 24.3424 6.09806 24.7852C6.09806 24.7852 11.8836 25.9624 16.7213 25.6971C16.9391 25.6871 17.1485 25.6091 17.3208 25.4738C17.493 25.3385 17.6197 25.1525 17.6834 24.9414C17.8467 24.3653 17.9066 23.3665 17.4743 21.6826" stroke="var(--stroke-0, #252D38)" stroke-width="0.8" stroke-miterlimit="10" stroke-linecap="round"/>
</g>
<path id="Path 166410" d="M5.29655 21.5516C5.29655 21.5516 3.97798 24.3539 4.77055 25.117" stroke="var(--stroke-0, #252D38)" stroke-width="0.8" stroke-linecap="round" stroke-linejoin="round"/>
<path id="Path 166411" d="M8.03269 15.3303L10.6424 17.46C10.826 17.6101 11.0581 17.686 11.2937 17.6731C11.5294 17.6601 11.752 17.5593 11.9185 17.39L14.0601 15.2119" stroke="var(--stroke-0, #252D38)" stroke-width="0.8" stroke-miterlimit="10" stroke-linecap="round"/>
<path id="Path 166412" d="M15.2023 6.77926C15.2058 6.80739 15.2176 6.83379 15.2362 6.85498C15.2548 6.87616 15.2793 6.89113 15.3065 6.89791C15.3337 6.90469 15.3623 6.90297 15.3885 6.89296C15.4147 6.88294 15.4372 6.86512 15.4532 6.84185C15.8635 6.24917 16.6537 4.45291 15.8699 2.99128C14.8622 1.11259 13.4973 0.0318457 11.0319 0.121986C8.56658 0.212126 6.48218 2.22953 6.33206 5.03531C6.2005 5.8146 6.3605 6.61557 6.78081 7.2818C6.78081 7.2818 7.18136 7.95622 7.5471 7.45368C7.91283 6.95113 8.39455 5.00682 9.84433 5.00682C11.2941 5.00682 11.8665 4.07974 12.2101 3.92514C12.2096 3.92468 14.3908 1.97849 15.2023 6.77926Z" fill="var(--fill-0, black)" stroke="var(--stroke-0, #252D38)" stroke-width="0.233523" stroke-miterlimit="10"/>
<path id="Path 166415" d="M14.1353 18.6789C14.2458 18.1085 14.3471 17.5125 14.4392 16.8908C14.5168 16.3615 14.582 15.847 14.6347 15.3472" stroke="var(--stroke-0, #252D38)" stroke-miterlimit="10" stroke-linecap="round"/>
<path id="Path 166416" d="M11.9957 24.3277C11.403 24.3574 11.0539 24.2233 10.8722 23.9879C9.9883 22.8409 12.4237 18.4364 14.099 18.6718C15.8347 18.9156 16.9388 24.1656 15.7593 24.9613C15.5216 25.1222 15.1526 25.1266 14.6012 24.8912" stroke="var(--stroke-0, #252D38)" stroke-width="0.8" stroke-miterlimit="10" stroke-linecap="round"/>
<path id="Path 166417" d="M6.34326 15.6713C6.44478 17.4589 6.75985 19.2274 7.28158 20.9382" stroke="var(--stroke-0, #252D38)" stroke-width="0.8" stroke-miterlimit="10" stroke-linecap="round"/>
<path id="Ellipse 8" d="M7.43001 22.3808C7.90505 22.3808 8.29014 21.9908 8.29014 21.5098C8.29014 21.0287 7.90505 20.6387 7.43001 20.6387C6.95496 20.6387 6.56987 21.0287 6.56987 21.5098C6.56987 21.9908 6.95496 22.3808 7.43001 22.3808Z" fill="var(--fill-0, #0066DC)" stroke="var(--stroke-0, #252D38)" stroke-width="0.233523" stroke-miterlimit="10"/>
<path id="Ellipse 9" d="M11.887 24.8331C12.1769 24.8331 12.4119 24.5951 12.4119 24.3016C12.4119 24.008 12.1769 23.7701 11.887 23.7701C11.5972 23.7701 11.3622 24.008 11.3622 24.3016C11.3622 24.5951 11.5972 24.8331 11.887 24.8331Z" fill="var(--fill-0, #0066DC)" stroke="var(--stroke-0, #252D38)" stroke-width="0.233523" stroke-miterlimit="10"/>
<path id="Ellipse 10" d="M14.7498 25.3899C15.0397 25.3899 15.2747 25.152 15.2747 24.8584C15.2747 24.5649 15.0397 24.3269 14.7498 24.3269C14.46 24.3269 14.225 24.5649 14.225 24.8584C14.225 25.152 14.46 25.3899 14.7498 25.3899Z" fill="var(--fill-0, #0066DC)" stroke="var(--stroke-0, #252D38)" stroke-width="0.233523" stroke-miterlimit="10"/>
</g>
</svg>
