<svg preserveAspectRatio="none" width="100%" height="100%" overflow="visible" style="display: block;" viewBox="0 0 21.1886 18.5029" fill="none" xmlns="http://www.w3.org/2000/svg">
<g id="Path_77486_1_">
<path id="Vector" d="M10.4343 18.5029C7.78286 18.4914 5.12 18.3314 2.50286 18.0571C1.39429 18.0571 0.445714 17.1086 0.445714 15.9429C0.171429 13.8171 0.0114286 11.5886 0 9.39429C0.0228571 7.06286 0.171429 4.70857 0.445714 2.4C0.445714 1.30286 1.39429 0.354286 2.56 0.342857C2.54857 0.342857 6.61714 0 10.6171 0C14.6171 0 18.6743 0.342857 18.72 0.354286C19.84 0.354286 20.7886 1.30286 20.7886 2.46857C20.7886 2.46857 21.1886 6.04571 21.1886 9.38286C21.1771 11.5771 21.04 13.7943 20.7886 15.9657C20.7657 17.12 19.8286 18.0457 18.6743 18.0457C18.6857 18.0571 14.4457 18.5029 10.4343 18.5029ZM10.6171 1.14286C6.66286 1.14286 2.65143 1.48571 2.60571 1.48571C2.02286 1.48571 1.57714 1.93143 1.57714 2.46857C1.31429 4.81143 1.16571 7.12 1.14286 9.39429C1.15429 11.5429 1.30286 13.7143 1.58857 15.8629C1.58857 16.48 2.03429 16.9143 2.57143 16.9143C5.21143 17.2 7.84 17.3486 10.4457 17.36C14.3886 17.36 18.5714 16.9257 18.6057 16.9143C19.2 16.9143 19.6457 16.4686 19.6457 15.9314V15.8629C19.8971 13.7257 20.0343 11.5429 20.0457 9.38286C20.0457 6.09143 19.6571 2.57143 19.6457 2.52571C19.6457 1.92 19.2 1.48571 18.6629 1.48571C18.5829 1.48571 14.5714 1.14286 10.6171 1.14286Z" fill="var(--fill-0, #2E3742)"/>
</g>
</svg>
