<svg preserveAspectRatio="none" width="100%" height="100%" overflow="visible" style="display: block;" viewBox="0 0 16.3192 17.5" fill="none" xmlns="http://www.w3.org/2000/svg">
<path id="vector" d="M5.69168 12.6901L5.69015 15.8984C5.68992 16.3688 5.30855 16.75 4.83817 16.75L2.45395 16.75C1.51288 16.75 0.75 15.9871 0.75 15.046V6.95187C0.75 6.42996 0.989187 5.93683 1.39905 5.61372L7.10471 1.1158C7.72341 0.628065 8.59581 0.628066 9.21451 1.1158L14.9202 5.61372C15.33 5.93683 15.5692 6.42996 15.5692 6.95187V15.046C15.5692 15.9871 14.8063 16.75 13.8653 16.75L11.4815 16.75C11.0109 16.75 10.6295 16.3686 10.6295 15.898V12.6909C10.6295 11.7499 9.8666 10.987 8.92553 10.987H7.39564C6.45489 10.987 5.69213 11.7494 5.69168 12.6901Z" stroke="var(--stroke-0, #0066DC)" stroke-width="1.5" stroke-linecap="round" stroke-linejoin="round"/>
</svg>
