<svg preserveAspectRatio="none" width="100%" height="100%" overflow="visible" style="display: block;" viewBox="0 0 24.9886 32.1608" fill="none" xmlns="http://www.w3.org/2000/svg">
<g id="Group 77146">
<path id="Path 152379" d="M15.5755 13.7375C17.0078 14.6007 18.0762 15.9564 18.581 17.5506C19.0239 18.8279 18.9849 20.223 18.4712 21.4735C18.0739 22.2605 17.4998 22.9447 16.7938 23.4727C16.0878 24.0006 15.2692 24.3579 14.402 24.5165C13.5513 24.6407 12.6837 24.5769 11.8603 24.3298C11.0369 24.0826 10.2776 23.6581 9.63584 23.086H5.34716C6.14986 24.659 7.39939 25.9597 8.93886 26.825C10.1434 27.4911 11.4865 27.8679 12.8617 27.9253C15.2423 27.9951 17.5651 27.1856 19.3867 25.6515C20.8818 24.4155 21.9151 22.7104 22.319 20.8131C22.6237 19.0478 22.3822 17.2314 21.6269 15.607C20.8659 13.7827 19.6242 12.1991 18.0343 11.0247L15.5755 13.7375Z" fill="var(--fill-0, white)" stroke="var(--stroke-0, #252D38)" stroke-width="0.988631" stroke-miterlimit="10"/>
<path id="Path 152380" d="M18.7191 0.570749C18.1546 0.777373 18.0725 1.31124 17.4645 2.2801C16.6583 3.42721 15.6682 4.43334 14.5342 5.25785C11.1472 8.32261 12.2366 10.376 8.7695 13.4635C7.44968 14.638 6.54706 15.0057 6.51641 15.9449C6.62909 16.7477 7.04022 17.4785 7.66781 17.9916C8.2954 18.5046 9.09334 18.7623 9.90247 18.7131C10.7319 18.5154 11.0295 17.6849 11.6899 16.548C13.773 12.9593 15.159 13.7314 17.7384 9.86289C19.2411 7.60881 19.0631 6.90689 20.6054 5.36957C21.5426 4.43531 22.1931 4.11005 22.2396 3.35671C22.3325 1.88266 20.0023 0.102138 18.7191 0.570749Z" fill="var(--fill-0, white)" stroke="var(--stroke-0, #252D38)" stroke-width="0.988631" stroke-miterlimit="10"/>
<path id="Path 152381" d="M16.7015 2.53424C17.0663 2.51051 17.2947 2.65386 19.354 4.28905C20.6887 5.35084 20.8291 5.47541 20.9092 5.75124C21.1623 6.60047 20.3812 7.33305 18.8508 9.20551C15.8029 12.9386 14.2794 14.8061 13.9136 15.3746C13.5182 15.9846 13.0575 16.7656 12.2478 16.899C11.5844 17.0078 11.0268 16.6272 9.99468 15.8995C8.74999 15.0226 7.89878 14.4235 7.8365 13.5525C7.79498 12.9781 8.12023 12.5945 8.96056 11.5693C10.7025 9.44576 11.9947 7.81847 12.2389 7.50903C12.7678 6.83972 13.1939 6.26236 14.5424 4.55203C15.7801 2.98307 16.1311 2.5728 16.7015 2.53424Z" fill="var(--fill-0, white)" stroke="var(--stroke-0, #252D38)" stroke-width="0.988631" stroke-miterlimit="10"/>
<path id="Path 153268" d="M15.7553 8.37502C16.4174 8.37502 17.0646 8.57134 17.6151 8.93917C18.1656 9.307 18.5946 9.82981 18.848 10.4415C19.1014 11.0532 19.1676 11.7262 19.0385 12.3756C18.9093 13.0249 18.5905 13.6214 18.1223 14.0896C17.6542 14.5577 17.0577 14.8765 16.4084 15.0057C15.759 15.1349 15.0859 15.0686 14.4743 14.8152C13.8626 14.5618 13.3398 14.1328 12.9719 13.5823C12.6041 13.0318 12.4078 12.3846 12.4078 11.7225C12.4078 10.8347 12.7605 9.98326 13.3883 9.35548C14.016 8.7277 14.8675 8.37502 15.7553 8.37502V8.37502Z" fill="var(--fill-0, #0066DC)" stroke="var(--stroke-0, white)" stroke-width="0.494315"/>
<path id="Path 152382" d="M8.62913 31.535C8.87732 30.4823 9.33566 29.4907 9.97663 28.6195C10.6894 27.6566 11.6731 26.2626 12.9494 26.3249C14.0369 26.3773 14.7903 27.452 15.5199 28.4999C16.1618 29.4212 16.6224 30.4563 16.8773 31.5498L8.62913 31.535Z" fill="var(--fill-0, white)" stroke="var(--stroke-0, #252D38)" stroke-width="0.988631" stroke-miterlimit="10"/>
<g id="Path 152383">
<path d="M0.494317 31.5388C5.81216 31.6307 5.80129 31.6742 11.2892 31.6653C15.7472 31.6574 20.149 31.6152 24.4943 31.5388" fill="var(--fill-0, white)"/>
<path d="M0.494317 31.5388C5.81216 31.6307 5.80129 31.6742 11.2892 31.6653C15.7472 31.6574 20.149 31.6152 24.4943 31.5388" stroke="var(--stroke-0, #252D38)" stroke-width="0.988631" stroke-miterlimit="10" stroke-linecap="round"/>
</g>
<g id="Path 152384">
<path d="M2.0343 22.8419C4.02079 22.921 6.03858 22.9569 8.08769 22.9497C9.75188 22.9431 11.3956 22.9072 13.019 22.8419" fill="var(--fill-0, white)"/>
<path d="M2.0343 22.8419C4.02079 22.921 6.03858 22.9569 8.08769 22.9497C9.75188 22.9431 11.3956 22.9072 13.019 22.8419" stroke="var(--stroke-0, #252D38)" stroke-width="0.988631" stroke-miterlimit="10" stroke-linecap="round"/>
</g>
</g>
</svg>
