<svg preserveAspectRatio="none" width="100%" height="100%" overflow="visible" style="display: block;" viewBox="0 0 4.58286 8.32" fill="none" xmlns="http://www.w3.org/2000/svg">
<g id="Path_77488_1_">
<path id="Vector" d="M4.42286 7.52L4.08 7.2L3.26857 6.45714L2.28571 5.54286L1.44 4.74286C1.30286 4.61714 1.16571 4.49143 1.02857 4.36572L1.16571 4.69714V4.42286L0.697143 4.89143H1.23429C1.41714 4.89143 1.61143 4.90286 1.79429 4.89143C2.24 4.86857 2.65143 4.74286 3.01714 4.50286C3.37143 4.27429 3.65714 3.95429 3.86286 3.58857C4.27429 2.81143 4.24 1.87429 3.76 1.13143C3.31429 0.434286 2.53714 0 1.70286 0H0.468571C0.342857 0 0.228571 0.0457142 0.137143 0.137143C-0.0457143 0.32 -0.0457143 0.617143 0.137143 0.788572C0.228571 0.868572 0.342857 0.925714 0.468571 0.925714H1.64571C1.76 0.925714 1.86286 0.925714 1.97714 0.948571L1.85143 0.937143C2.02286 0.96 2.19429 1.00571 2.35429 1.07429L2.24 1.02857C2.4 1.09714 2.54857 1.17714 2.68571 1.29143L2.59429 1.21143C2.72 1.31429 2.84571 1.44 2.94857 1.56571L2.86857 1.47429C2.97143 1.61143 3.06286 1.76 3.13143 1.92L3.08571 1.80571C3.15429 1.96571 3.2 2.13714 3.22286 2.30857C3.22286 2.26286 3.21143 2.22857 3.2 2.18286C3.22286 2.35429 3.22286 2.52571 3.2 2.69714C3.21143 2.65143 3.21143 2.61714 3.22286 2.57143C3.2 2.74286 3.15429 2.91429 3.08571 3.07429L3.13143 2.96C3.06286 3.13143 2.98286 3.28 2.86857 3.41714L2.93714 3.32572C2.84571 3.45143 2.72 3.57714 2.59429 3.68L2.68571 3.6C2.54857 3.70286 2.4 3.79429 2.24 3.86286L2.35429 3.81714C2.19429 3.88571 2.02286 3.93143 1.85143 3.95429L1.97714 3.93143C1.80571 3.95429 1.64571 3.95429 1.47429 3.95429H0.708571C0.457143 3.95429 0.251428 4.16 0.24 4.42286C0.24 4.51429 0.24 4.59429 0.24 4.68571C0.24 4.82286 0.297143 4.94857 0.4 5.04L0.582857 5.2L1.36 5.92L2.38857 6.88L3.31429 7.74857C3.46286 7.88572 3.62286 8.03429 3.77143 8.18286H3.78286C3.87429 8.26286 3.98857 8.32 4.11429 8.32C4.24 8.32 4.35429 8.27429 4.44571 8.18286C4.53714 8.09143 4.58286 7.97714 4.58286 7.85143C4.58286 7.72572 4.53714 7.61143 4.44571 7.52H4.42286Z" fill="var(--fill-0, #2E3742)"/>
</g>
</svg>
