<svg preserveAspectRatio="none" width="100%" height="100%" overflow="visible" style="display: block;" viewBox="0 0 29.0865 12.2465" fill="none" xmlns="http://www.w3.org/2000/svg">
<g id="Group 210404">
<path id="Vector" d="M0.363858 3.20543V7.67291C0.363858 7.67291 1.5313 11.3688 8.95892 11.7397C9.387 11.7611 9.81509 11.7893 10.2421 11.8266C11.4475 11.9319 14.4017 11.9737 17.1991 11.1571C18.6554 10.732 20.138 10.4028 21.642 10.2037C23.8919 9.90584 26.8742 9.60672 28.7228 9.80132V5.48333C28.7228 5.48333 21.3858 5.34153 18.5889 6.37677C18.2887 6.48791 17.9865 6.59216 17.6793 6.6817C15.0358 7.45198 5.44052 9.6787 0.363858 3.20543Z" fill="var(--fill-0, white)" stroke="var(--stroke-0, #252D38)" stroke-width="0.72734" stroke-linecap="round" stroke-linejoin="round"/>
<g id="Vector_2">
<path d="M0.363671 3.23395C0.363671 3.22436 0.36367 3.21518 0.364075 3.20546C0.385007 2.20034 1.52058 1.21277 4.20942 0.749843C9.4299 -0.147381 13.5633 0.65788 15.5314 1.74322C17.499 2.82869 15.8735 4.57344 12.2948 4.97681C11.3403 5.08431 10.3351 5.08215 9.39614 4.99856C6.8148 4.77033 4.735 3.93118 5.5955 3.08743C6.76834 1.93727 12.1644 2.25368 12.0732 3.02842C11.9825 3.80316 9.40356 3.77385 9.40356 3.77385L9.396 4.99856V4.99896" fill="var(--fill-0, white)"/>
<path d="M0.363671 3.23395C0.363671 3.22436 0.36367 3.21518 0.364075 3.20546C0.385007 2.20034 1.52058 1.21277 4.20942 0.749843C9.4299 -0.147381 13.5633 0.65788 15.5314 1.74322C17.499 2.82869 15.8735 4.57344 12.2948 4.97681C11.3403 5.08431 10.3351 5.08215 9.39614 4.99856C6.8148 4.77033 4.735 3.93118 5.5955 3.08743C6.76834 1.93727 12.1644 2.25368 12.0732 3.02842C11.9825 3.80316 9.40356 3.77385 9.40356 3.77385L9.396 4.99856V4.99896" stroke="var(--stroke-0, #252D38)" stroke-width="0.72734" stroke-linecap="round" stroke-linejoin="round"/>
</g>
<path id="Vector_3" d="M16.3869 7.01827L16.3751 2.79211" stroke="var(--stroke-0, #252D38)" stroke-width="0.72734" stroke-linecap="round" stroke-linejoin="round"/>
<path id="Vector_4" d="M5.4022 3.53836L5.40976 6.80883" stroke="var(--stroke-0, #252D38)" stroke-width="0.72734" stroke-linecap="round" stroke-linejoin="round"/>
<path id="Vector_5" d="M12.0533 5.00243V3.11049" stroke="var(--stroke-0, #252D38)" stroke-width="0.72734" stroke-linecap="round" stroke-linejoin="round"/>
<path id="Vector_6" d="M1.9741 7.54435V9.64399" stroke="var(--stroke-0, #252D38)" stroke-width="0.72734" stroke-linecap="round" stroke-linejoin="round"/>
<path id="Vector_7" d="M4.38947 8.8128V10.9126" stroke="var(--stroke-0, #252D38)" stroke-width="0.72734" stroke-linecap="round" stroke-linejoin="round"/>
<path id="Vector_8" d="M6.83521 11.5233V9.43309" stroke="var(--stroke-0, #252D38)" stroke-width="0.72734" stroke-linecap="round" stroke-linejoin="round"/>
<path id="Vector_9" d="M9.48097 11.7683V9.68121" stroke="var(--stroke-0, #252D38)" stroke-width="0.72734" stroke-linecap="round" stroke-linejoin="round"/>
<path id="Vector_10" d="M12.3293 9.77299V11.8728" stroke="var(--stroke-0, #252D38)" stroke-width="0.72734" stroke-linecap="round" stroke-linejoin="round"/>
<path id="Vector_11" d="M15.032 11.6319V9.54766" stroke="var(--stroke-0, #252D38)" stroke-width="0.72734" stroke-linecap="round" stroke-linejoin="round"/>
<path id="Vector_12" d="M18.0234 8.83368V10.9335" stroke="var(--stroke-0, #252D38)" stroke-width="0.72734" stroke-linecap="round" stroke-linejoin="round"/>
<path id="Vector_13" d="M20.8717 8.21655V10.3163" stroke="var(--stroke-0, #252D38)" stroke-width="0.72734" stroke-linecap="round" stroke-linejoin="round"/>
<path id="Vector_14" d="M23.2301 10.0104V7.91779" stroke="var(--stroke-0, #252D38)" stroke-width="0.72734" stroke-linecap="round" stroke-linejoin="round"/>
<path id="Vector_15" d="M26.0758 9.7734V7.6874" stroke="var(--stroke-0, #252D38)" stroke-width="0.72734" stroke-linecap="round" stroke-linejoin="round"/>
</g>
</svg>
