<svg preserveAspectRatio="none" width="100%" height="100%" overflow="visible" style="display: block;" viewBox="0 0 26.8212 30.3944" fill="none" xmlns="http://www.w3.org/2000/svg">
<g id="Group 189133">
<path id="Path 238452" d="M3.37761 21.0839H21.815C21.815 21.0839 24.5378 27.6073 18.1656 29.5367C11.7934 31.4662 3.37761 29.5367 3.37761 29.5367V21.0839Z" fill="var(--fill-0, white)"/>
<path id="Path 229432" d="M12.8862 14.7622L15.4284 16.9167L9.40828 17.3899C8.72285 17.2692 8.04697 17.1031 7.3855 16.8928C7.95703 16.0331 8.79416 15.3657 9.78019 14.9838C10.7662 14.6018 11.852 14.5244 12.8862 14.7622Z" fill="var(--fill-0, white)" stroke="var(--stroke-0, #70829B)" stroke-width="0.959868"/>
<g id="Path 229407">
<path d="M7.56866 15.9632C7.48542 15.9903 7.40634 16.0215 7.3256 16.0526C7.79041 15.8821 8.20333 15.6028 8.52678 15.2402C9.08527 14.5778 9.34956 13.7315 9.26262 12.8838C8.11351 11.9953 7.25293 10.8107 6.78201 9.46934C6.4939 8.61701 6.38081 7.7192 6.44902 6.82563C6.43211 6.2397 6.57561 5.65977 6.86523 5.14354C7.7168 3.93382 9.43076 4.84428 11.4069 3.51088C12.7663 2.59082 12.9761 1.7346 13.7769 1.77769C15.237 1.85749 16.0769 4.76372 16.151 5.04301C16.5174 6.44802 16.4644 7.9235 15.9978 9.30097C15.5151 10.7238 14.6312 11.9909 13.4439 12.962C13.2714 13.5519 13.3414 14.1828 13.6395 14.7248C13.97 15.2307 14.479 15.6062 15.0738 15.7829" fill="var(--fill-0, white)"/>
<path d="M7.56866 15.9632C7.48542 15.9903 7.40634 16.0215 7.3256 16.0526C7.79041 15.8821 8.20333 15.6028 8.52678 15.2402C9.08527 14.5778 9.34956 13.7315 9.26262 12.8838C8.11351 11.9953 7.25293 10.8107 6.78201 9.46934C6.4939 8.61701 6.38081 7.7192 6.44902 6.82563C6.43211 6.2397 6.57561 5.65977 6.86523 5.14354C7.7168 3.93382 9.43076 4.84428 11.4069 3.51088C12.7663 2.59082 12.9761 1.7346 13.7769 1.77769C15.237 1.85749 16.0769 4.76372 16.151 5.04301C16.5174 6.44802 16.4644 7.9235 15.9978 9.30097C15.5151 10.7238 14.6312 11.9909 13.4439 12.962C13.2714 13.5519 13.3414 14.1828 13.6395 14.7248C13.97 15.2307 14.479 15.6062 15.0738 15.7829" stroke="var(--stroke-0, #252D38)" stroke-width="0.959868" stroke-miterlimit="10"/>
</g>
<path id="Ellipse 52056" d="M11.3868 15.0314C14.1595 15.0314 16.4071 12.1386 16.4071 8.57022C16.4071 5.00182 14.1595 2.10907 11.3868 2.10907C8.61412 2.10907 6.36644 5.00182 6.36644 8.57022C6.36644 12.1386 8.61412 15.0314 11.3868 15.0314Z" fill="var(--fill-0, white)" stroke="var(--stroke-0, #252D38)" stroke-width="0.959868" stroke-miterlimit="10"/>
<path id="Path 229413" d="M16.0621 10.8248C17.3598 10.2375 17.856 9.13472 17.5446 8.52667C17.4106 8.34668 17.2365 8.1975 17.035 8.08999C16.8334 7.98247 16.6094 7.91932 16.3792 7.90506C16.4535 8.88868 16.3472 9.87714 16.0654 10.8256L16.0621 10.8248Z" fill="var(--fill-0, white)" stroke="var(--stroke-0, #252D38)" stroke-width="0.959868" stroke-miterlimit="10" stroke-linecap="round"/>
<path id="Path 229414" d="M6.48059 10.5905C5.26442 9.99919 4.84158 8.88842 5.18288 8.27159C5.3214 8.09062 5.49979 7.94112 5.70538 7.83369C5.91096 7.72625 6.13871 7.66353 6.37243 7.64997C6.31163 8.05857 6.28238 8.47093 6.28499 8.88365C6.28967 9.45775 6.3552 10.0291 6.48059 10.5905Z" fill="var(--fill-0, white)" stroke="var(--stroke-0, #252D38)" stroke-width="0.959868" stroke-miterlimit="10" stroke-linecap="round"/>
<g id="Path 229416">
<path d="M4.93211 23.6034C4.93211 25.3199 6.45878 25.414 7.24958 25.3199C9.28819 25.0805 11.1428 24.3982 11.9286 24.2881C12.9475 24.1453 13.5785 26.5918 13.6226 27.0275C13.6667 27.4632 13.0982 27.6946 13.0982 27.6946C-0.438692 32.6293 0.493598 26.0308 0.493598 26.0308C0.721683 18.3703 3.36796 17.3178 3.36796 17.3178C4.54879 16.5199 5.90548 15.9935 7.3328 15.7793C7.96624 15.6379 8.63201 15.7296 9.19829 16.0363C9.81197 16.3947 10.5141 16.5899 11.2326 16.602C11.951 16.614 12.6599 16.4425 13.2863 16.1049C13.8187 15.7894 14.4541 15.6737 15.0702 15.7802L15.2433 15.8041C17.1749 16.0656 18.9796 16.8783 20.4227 18.1365C21.0353 18.7119 21.0712 19.608 22.0101 21.4242" fill="var(--fill-0, white)"/>
<path d="M4.93211 23.6034C4.93211 25.3199 6.45878 25.414 7.24958 25.3199C9.28819 25.0805 11.1428 24.3982 11.9286 24.2881C12.9475 24.1453 13.5785 26.5918 13.6226 27.0275C13.6667 27.4632 13.0982 27.6946 13.0982 27.6946C-0.438692 32.6293 0.493598 26.0308 0.493598 26.0308C0.721683 18.3703 3.36796 17.3178 3.36796 17.3178C4.54879 16.5199 5.90548 15.9935 7.3328 15.7793C7.96624 15.6379 8.63201 15.7296 9.19829 16.0363C9.81197 16.3947 10.5141 16.5899 11.2326 16.602C11.951 16.614 12.6599 16.4425 13.2863 16.1049C13.8187 15.7894 14.4541 15.6737 15.0702 15.7802L15.2433 15.8041C17.1749 16.0656 18.9796 16.8783 20.4227 18.1365C21.0353 18.7119 21.0712 19.608 22.0101 21.4242" stroke="var(--stroke-0, #252D38)" stroke-width="0.959868" stroke-miterlimit="10" stroke-linecap="round"/>
</g>
<g id="Path 229434">
<path d="M18.2266 25.3716C17.8014 26.0084 17.6442 26.7762 17.787 27.5198C17.9144 28.3528 19.3079 29.2106 20.1853 29.2011C20.7741 29.0977 21.3124 28.8151 21.7203 28.3951C22.6251 27.3354 22.0108 21.7592 22.0108 21.7592" fill="var(--fill-0, white)"/>
<path d="M18.2266 25.3716C17.8014 26.0084 17.6442 26.7762 17.787 27.5198C17.9144 28.3528 19.3079 29.2106 20.1853 29.2011C20.7741 29.0977 21.3124 28.8151 21.7203 28.3951C22.6251 27.3354 22.0108 21.7592 22.0108 21.7592" stroke="var(--stroke-0, #252D38)" stroke-width="0.959868" stroke-miterlimit="10" stroke-linecap="round"/>
</g>
<path id="Path 229442" d="M18.5485 22.3991C18.6055 22.9027 18.5156 23.4115 18.2888 23.869" stroke="var(--stroke-0, #252D38)" stroke-width="0.959868" stroke-linecap="round" stroke-linejoin="bevel"/>
<g id="Path 229443">
<path d="M17.9344 25.9586C18.3084 25.2568 18.5646 24.5027 18.6935 23.7243C18.6935 23.7243 18.587 22.9966 19.6666 23.3732C20.7463 23.7499 21.622 23.8958 22.0082 23.6764C22.3945 23.457 22.6825 23.6932 22.5385 23.9397C22.3428 24.7418 22.2274 25.56 22.1938 26.3831" fill="var(--fill-0, white)"/>
<path d="M17.9344 25.9586C18.3084 25.2568 18.5646 24.5027 18.6935 23.7243C18.6935 23.7243 18.587 22.9966 19.6666 23.3732C20.7463 23.7499 21.622 23.8958 22.0082 23.6764C22.3945 23.457 22.6825 23.6932 22.5385 23.9397C22.3428 24.7418 22.2274 25.56 22.1938 26.3831" stroke="var(--stroke-0, #252D38)" stroke-width="0.959868" stroke-linecap="round" stroke-linejoin="bevel"/>
</g>
<g id="Group 124185">
<path id="Path 229445" d="M18.4125 21.6536C18.687 21.7575 18.9176 21.9459 19.0683 22.1891C19.219 22.4323 19.2811 22.7166 19.2449 22.9974C19.2391 24.8112 18.1903 24.6938 18.1903 24.6938C17.9938 25.2189 16.7635 25.4344 16.7635 25.4344C16.3273 25.9275 15.9652 25.7599 15.9652 25.7599C15.6358 25.9086 15.2798 25.9952 14.9163 26.0153C14.3808 26.1352 13.8824 26.3751 13.4621 26.7151C13.3629 26.8183 13.2401 26.8981 13.1033 26.9481C12.8484 26.9282 12.6 26.8598 12.3729 26.7471C12.1457 26.6344 11.9442 26.4795 11.7801 26.2914C11.6159 26.1033 11.4924 25.8858 11.4168 25.6515C11.3411 25.4173 11.3148 25.1709 11.3394 24.9268C11.3346 24.8005 11.3752 24.6765 11.4544 24.5755C11.5337 24.4745 11.6468 24.4027 11.7748 24.3722C12.6019 24.0802 13.3094 23.5416 13.7934 22.8354C14.3525 22.2206 15.0903 21.7797 15.9123 21.5691C16.7343 21.3586 17.6031 21.388 18.4075 21.6536H18.4125Z" fill="var(--fill-0, #0066DC)" stroke="var(--stroke-0, white)" stroke-width="0.479934" stroke-miterlimit="10" stroke-linecap="round"/>
<g id="Path 229446">
<path d="M14.7522 23.7019C14.9721 23.9307 15.2089 24.1441 15.4607 24.3403C15.7354 24.5382 15.151 24.962 15.136 25.1032C15.121 25.2444 15.0111 25.5022 15.3249 25.6937C15.6388 25.8852 16.5852 25.7927 16.7792 25.4104" fill="var(--fill-0, #0066DC)"/>
<path d="M14.7522 23.7019C14.9721 23.9307 15.2089 24.1441 15.4607 24.3403C15.7354 24.5382 15.151 24.962 15.136 25.1032C15.121 25.2444 15.0111 25.5022 15.3249 25.6937C15.6388 25.8852 16.5852 25.7927 16.7792 25.4104" stroke="var(--stroke-0, white)" stroke-width="0.479934" stroke-miterlimit="10" stroke-linecap="round"/>
</g>
<g id="Path 229447">
<path d="M16.3739 25.5979C16.741 25.258 17.0031 24.8275 17.1314 24.3539C17.2289 24.0789 17.2301 23.781 17.1349 23.5053C17.0396 23.2296 16.8531 22.9913 16.6036 22.8266" fill="var(--fill-0, #0066DC)"/>
<path d="M16.3739 25.5979C16.741 25.258 17.0031 24.8275 17.1314 24.3539C17.2289 24.0789 17.2301 23.781 17.1349 23.5053C17.0396 23.2296 16.8531 22.9913 16.6036 22.8266" stroke="var(--stroke-0, white)" stroke-width="0.383947" stroke-miterlimit="10" stroke-linecap="round"/>
</g>
<path id="Path 239410" d="M17.8537 25.0133C17.9989 24.7685 18.0866 24.4963 18.1104 24.2156C18.1343 23.935 18.0938 23.6527 17.9919 23.3886" stroke="var(--stroke-0, white)" stroke-width="0.383947" stroke-linecap="round" stroke-linejoin="round"/>
</g>
<g id="Path 229449">
<path d="M9.61477 24.8357C9.61477 24.8357 11.0956 24.4023 11.63 24.2771C12.1645 24.1518 12.157 24.234 12.157 24.234C13.9275 24.9944 13.5721 27.3932 13.5721 27.3932C13.3003 27.5687 13.0161 27.7258 12.7214 27.8632C12.1378 28.0805 11.5423 28.2669 10.9375 28.4217" fill="var(--fill-0, white)"/>
<path d="M9.61477 24.8357C9.61477 24.8357 11.0956 24.4023 11.63 24.2771C12.1645 24.1518 12.157 24.234 12.157 24.234C13.9275 24.9944 13.5721 27.3932 13.5721 27.3932C13.3003 27.5687 13.0161 27.7258 12.7214 27.8632C12.1378 28.0805 11.5423 28.2669 10.9375 28.4217" stroke="var(--stroke-0, #252D38)" stroke-width="0.959868" stroke-linecap="round" stroke-linejoin="round"/>
</g>
<path id="Path 229451" d="M6.42542 6.89399C6.42542 6.89399 7.12217 5.03871 11.4025 5.13845C15.6828 5.2382 16.1473 6.66893 16.1473 6.66893C16.1473 6.66893 16.3371 7.68478 16.8474 6.89399C16.8474 6.89399 17.8821 5.72015 17.3343 4.70913C17.3343 4.70913 17.2769 3.05097 16.0607 2.5658C16.0607 2.5658 15.3116 0.793513 13.5377 0.969864C13.5377 0.969864 11.3442 -0.124144 9.74095 0.957104C9.74095 0.957104 7.33609 1.06722 6.87243 2.44292C6.4972 2.69756 6.20632 3.05026 6.03451 3.45904C5.8627 3.86781 5.81722 4.31536 5.90348 4.74823C5.7637 5.11539 5.73873 5.51367 5.83159 5.89424C5.92445 6.27481 6.13108 6.62114 6.42624 6.89078L6.42542 6.89399Z" fill="var(--fill-0, white)" stroke="var(--stroke-0, #252D38)" stroke-width="0.959868" stroke-miterlimit="10" stroke-linecap="round"/>
<path id="Path 117844" d="M12.6556 2.69311H12.2269C12.191 2.69333 12.1566 2.67993 12.131 2.65586C12.1054 2.63178 12.0908 2.59899 12.0904 2.56463V2.17602C12.0916 2.06576 12.0471 1.95957 11.9666 1.88078C11.8861 1.80199 11.7763 1.75706 11.6613 1.7559C11.5463 1.75474 11.4354 1.7974 11.3533 1.87454C11.2711 1.95169 11.2242 2.05699 11.223 2.16726L11.228 2.57262C11.2274 2.60705 11.2126 2.63984 11.1869 2.66389C11.1612 2.68794 11.1266 2.70132 11.0906 2.7011H10.6353C10.5803 2.70168 10.526 2.71264 10.4754 2.73334C10.4248 2.75405 10.379 2.78406 10.3406 2.82174C10.3021 2.85942 10.2718 2.90398 10.2513 2.9529C10.2308 3.00182 10.2206 3.05415 10.2212 3.10686C10.2218 3.15957 10.2332 3.21165 10.2548 3.26013C10.2764 3.3086 10.3078 3.35252 10.3471 3.38939C10.3864 3.42625 10.4329 3.45532 10.4839 3.47496C10.5349 3.4946 10.5895 3.50442 10.6444 3.50384L11.1006 3.49586C11.1364 3.49455 11.1713 3.50681 11.1978 3.52995C11.2243 3.55309 11.2402 3.58527 11.2421 3.61956L11.2471 4.01373C11.2477 4.10529 11.2811 4.19389 11.3417 4.26465C11.4023 4.33541 11.4865 4.38403 11.5801 4.40234C11.6361 4.4143 11.694 4.41553 11.7505 4.40594C11.8069 4.39635 11.8609 4.37615 11.9092 4.34647C11.9575 4.3168 11.9992 4.27828 12.0318 4.23309C12.0645 4.1879 12.0875 4.13694 12.0996 4.08318C12.1051 4.05876 12.1084 4.03392 12.1095 4.00895V3.60997C12.1096 3.59289 12.1133 3.57598 12.1202 3.56024C12.1271 3.5445 12.1372 3.53026 12.1499 3.51826C12.1625 3.50626 12.1776 3.49674 12.1941 3.4903C12.2106 3.48386 12.2282 3.4806 12.246 3.48071L12.6739 3.4735C12.7293 3.47529 12.7845 3.46636 12.8361 3.44715C12.8878 3.42795 12.9349 3.39889 12.9745 3.36177C13.0141 3.32466 13.0455 3.28025 13.0668 3.2312C13.088 3.18214 13.0987 3.12948 13.0981 3.07637C13.0976 3.02325 13.0858 2.9708 13.0635 2.92217C13.0412 2.87354 13.0089 2.82973 12.9685 2.7934C12.928 2.75706 12.8804 2.72894 12.8283 2.71075C12.7763 2.69255 12.7209 2.68464 12.6656 2.68751L12.6556 2.69311Z" fill="var(--fill-0, #0066DC)"/>
<g id="Mask Group 2139">
<g id="Path 184964">
<path d="M16.4295 8.90381C16.4362 9.94995 16.2114 13.8616 12.5604 15.0354C11.7631 15.2935 10.8984 15.2868 10.1056 15.0162C8.57811 14.4904 6.21234 12.9646 6.41045 8.60774C6.41045 8.56465 6.36384 8.5455 6.41045 8.54949V8.60774C6.37226 8.73632 6.37226 8.87259 6.41045 9.00117C6.94071 9.64753 8.86447 8.7538 11.1436 8.7538C13.5102 8.7538 15.7536 9.5701 16.4037 9.0977" fill="var(--fill-0, #0066DC)"/>
<path d="M16.4295 8.90381C16.4362 9.94995 16.2114 13.8616 12.5604 15.0354C11.7631 15.2935 10.8984 15.2868 10.1056 15.0162C8.57811 14.4904 6.21234 12.9646 6.41045 8.60774C6.41045 8.56465 6.36384 8.5455 6.41045 8.54949V8.60774C6.37226 8.73632 6.37226 8.87259 6.41045 9.00117C6.94071 9.64753 8.86447 8.7538 11.1436 8.7538C13.5102 8.7538 15.7536 9.5701 16.4037 9.0977" stroke="var(--stroke-0, white)" stroke-width="0.959868" stroke-miterlimit="10" stroke-linecap="round"/>
</g>
</g>
<g id="Group 189131">
<path id="Path 239407" d="M19.3699 24.212C19.4639 24.212 22.4798 24.1218 22.6688 23.7149C23.0296 22.7942 23.3201 21.8496 23.5378 20.8885C23.5365 20.186 23.6974 19.4919 24.009 18.856C24.4335 18.1786 25.5123 16.1717 25.5123 16.1717C25.7879 15.7582 26.0146 15.3166 26.1883 14.855C26.3545 14.3715 26.4877 13.8781 26.587 13.378C26.6433 12.8111 26.6433 12.2404 26.587 11.6735C26.4838 11.1277 26.4538 11.087 26.0443 11.0822C25.6347 11.0774 25.6139 11.6767 25.6139 11.6767C25.6139 11.6767 25.4932 10.6465 24.8864 10.7694C24.2795 10.8923 24.4385 11.233 24.4385 11.7334C24.4385 12.2337 24.486 13.8711 24.4385 13.9621C24.3911 14.0531 24.3411 14.5677 24.2471 14.7489C24.3068 14.2221 24.2724 13.6894 24.1455 13.1737C23.9441 11.9568 23.7368 11.541 23.3622 11.4724C22.9876 11.4038 22.7379 11.5873 22.7379 12.039C22.7379 12.4906 23.115 13.4841 23.115 13.8009C23.1191 14.2099 23.0631 14.6174 22.9485 15.0114C22.9485 15.0114 22.6238 13.899 22.5264 13.7187C22.429 13.5384 22.2651 12.6016 21.7048 12.8545C21.1446 13.1075 21.4693 13.4865 21.5633 13.848C21.7207 14.3801 21.8321 14.9238 21.8963 15.4734C21.5325 16.2571 21.2468 17.072 21.0431 17.9072C20.8686 19.1552 20.6167 20.3921 20.2889 21.6114C19.8475 22.2708 19.4691 22.9671 19.1585 23.6917C19.1731 23.8815 19.2468 24.0627 19.3699 24.212V24.212Z" fill="var(--fill-0, #0066DC)" stroke="var(--stroke-0, white)" stroke-width="0.383947" stroke-miterlimit="10" stroke-linecap="round" stroke-linejoin="round"/>
<g id="Path 239409">
<path d="M25.6119 11.6782C25.6618 12.1851 25.6618 12.6954 25.6119 13.2023C25.5245 13.9021 25.5603 13.7608 25.4612 14.2747" fill="var(--fill-0, #0066DC)"/>
<path d="M25.6119 11.6782C25.6618 12.1851 25.6618 12.6954 25.6119 13.2023C25.5245 13.9021 25.5603 13.7608 25.4612 14.2747" stroke="var(--stroke-0, white)" stroke-width="0.383947" stroke-miterlimit="10" stroke-linecap="round" stroke-linejoin="round"/>
</g>
</g>
</g>
</svg>
