<svg preserveAspectRatio="none" width="100%" height="100%" overflow="visible" style="display: block;" viewBox="0 0 22.0255 22.4319" fill="none" xmlns="http://www.w3.org/2000/svg">
<g id="Group">
<g id="Vector">
</g>
<g id="Group 210406">
<path id="Vector_2" d="M8.31146 20.8789L8.2906 20.8633L8.26974 20.8476C5.64666 19.0485 3.37298 16.78 1.57384 14.1569L1.5582 14.1309L1.53734 14.11C0.833331 13.3904 0.431786 12.4204 0.421356 11.4139C0.421356 10.9133 0.520439 10.4179 0.708175 9.95897C0.901125 9.49485 1.18273 9.07766 1.53212 8.72304L1.55298 8.7074L1.56341 8.68654C3.49292 6.15733 5.75096 3.89407 8.28539 1.96978L8.30103 1.95414L8.31668 1.93849C9.03633 1.23448 10.0063 0.832939 11.0128 0.827724C11.5134 0.827724 12.0088 0.921592 12.4729 1.11454C12.9318 1.30749 13.3542 1.58388 13.7036 1.93849L13.7193 1.95414L13.7349 1.96978C16.2381 3.941 18.4961 6.19904 20.4621 8.69697L20.4726 8.71262L20.4882 8.72826C21.1922 9.44791 21.5937 10.4179 21.6042 11.4244C21.6042 11.925 21.5051 12.4204 21.3174 12.8793C21.1244 13.3434 20.8428 13.7606 20.4934 14.1152L20.4778 14.1309L20.4621 14.1465C18.4961 16.6444 16.2381 18.9025 13.7349 20.8737L13.7193 20.8841L13.7089 20.8998C13.2499 21.3535 12.6815 21.682 12.0662 21.8645C11.7272 21.9636 11.3726 22.0105 11.018 22.0105C10.5695 22.0001 10.1262 21.9115 9.70383 21.755C9.18756 21.5621 8.71301 21.27 8.31146 20.8946V20.8789Z" fill="var(--fill-0, white)" stroke="url(#paint0_linear_0_292)" stroke-width="0.842667"/>
<g id="Group 210408">
<path id="Vector_3" d="M15.128 15.7734C14.8803 15.735 14.643 15.6526 14.4216 15.5263C14.4111 15.5208 14.4006 15.5153 14.39 15.5208C14.3795 15.5208 14.3689 15.5263 14.3584 15.5373L11.3695 18.5242C11.2799 18.6231 11.1692 18.7054 11.0479 18.7603C10.9267 18.8207 10.7949 18.8537 10.6631 18.8592C10.5313 18.8647 10.3943 18.8482 10.2678 18.7988C10.1412 18.7494 10.0253 18.6835 9.92512 18.5956C9.73008 18.4199 9.60884 18.1728 9.59302 17.9038C9.57721 17.6402 9.66155 17.3767 9.83024 17.179L9.85132 17.1571H9.86186V17.1461C9.86186 17.1461 9.90404 17.1021 9.92512 17.0802L12.8929 14.1097C12.8929 14.1097 12.9035 14.0932 12.9035 14.0823C12.9035 14.0713 12.8982 14.0603 12.8929 14.0548L12.3816 13.5442C12.3816 13.5442 12.3658 13.5332 12.3552 13.5332C12.3447 13.5332 12.3342 13.5332 12.3289 13.5442L9.36108 16.5146C9.36108 16.5146 9.35581 16.5146 9.35054 16.5201L9.33999 16.5311C9.15022 16.7178 8.89192 16.8221 8.62308 16.8221C8.35951 16.8221 8.10121 16.7178 7.91144 16.5311C7.72167 16.3444 7.61097 16.0919 7.6057 15.8228C7.60043 15.5538 7.70058 15.2957 7.88508 15.1035C7.89563 15.0925 7.90617 15.0816 7.91671 15.0706L10.874 12.1166C10.874 12.1166 10.8898 12.1001 10.8898 12.0891C10.8898 12.0781 10.8845 12.0672 10.874 12.0617L10.3679 11.551C10.3679 11.551 10.3468 11.54 10.3363 11.54C10.331 11.54 10.3205 11.54 10.3099 11.551L7.32104 14.538C7.06801 14.7906 6.89406 15.1145 6.82553 15.4714C6.75173 15.8228 6.78863 16.1907 6.92569 16.5256C7.06801 16.8606 7.29996 17.1406 7.60043 17.3437C7.89563 17.5414 8.24881 17.6512 8.60727 17.6512C8.6758 17.6512 8.74432 17.6512 8.80758 17.6402C8.80231 17.7061 8.79704 17.772 8.79704 17.8379C8.79704 18.2003 8.90774 18.5517 9.10278 18.8482C9.30309 19.1447 9.58775 19.3808 9.91985 19.5181C10.2572 19.6553 10.6209 19.6938 10.9741 19.6224C11.3273 19.551 11.6489 19.3808 11.9072 19.1227L15.1596 15.8667C15.1596 15.8667 15.1755 15.8503 15.1755 15.8393V15.8118C15.1755 15.8118 15.1649 15.7954 15.1596 15.7899C15.1491 15.7844 15.1438 15.7789 15.1333 15.7789H15.128V15.7734Z" fill="var(--fill-0, #0066DC)"/>
<path id="Vector_4" d="M6.88923 7.07158C7.13699 7.11002 7.37947 7.19238 7.5956 7.31867C7.60615 7.32416 7.61669 7.32965 7.6325 7.32416C7.64304 7.32416 7.65359 7.31867 7.65886 7.30769L10.653 4.32073C10.7426 4.2219 10.8481 4.13954 10.9693 4.08463C11.0906 4.02972 11.2223 3.99129 11.3594 3.9858C11.4912 3.98031 11.623 3.99678 11.7495 4.04619C11.876 4.09012 11.992 4.1615 12.0921 4.24935C12.2872 4.42505 12.4084 4.67214 12.4295 4.93569C12.4453 5.19925 12.361 5.4628 12.187 5.66596L12.1659 5.68792L12.1606 5.6989C12.1448 5.72087 12.1237 5.74283 12.1027 5.76479L9.13486 8.73527C9.13486 8.73527 9.12431 8.74076 9.12431 8.74626C9.12431 8.75175 9.11904 8.75724 9.11904 8.76273C9.11904 8.76822 9.12431 8.77371 9.12431 8.7792C9.12431 8.78469 9.12958 8.79018 9.13486 8.79018L9.64091 9.30082C9.64091 9.30082 9.662 9.3118 9.67254 9.3118C9.68308 9.3118 9.69363 9.3118 9.6989 9.30082L12.6667 6.33034C12.6667 6.33034 12.672 6.33034 12.672 6.32485L12.6878 6.31386C12.8776 6.12169 13.1359 6.01187 13.4047 6.00638C13.6735 6.00638 13.9371 6.11071 14.1322 6.29739C14.3219 6.48957 14.4326 6.74763 14.4326 7.01668C14.4379 7.28572 14.3325 7.54928 14.1427 7.74145C14.1322 7.75243 14.1216 7.76342 14.1058 7.7744L11.1485 10.7284C11.1485 10.7284 11.1433 10.7339 11.1433 10.7394C11.138 10.7394 11.138 10.7504 11.138 10.7559C11.138 10.7614 11.138 10.7668 11.1433 10.7723L11.1485 10.7833L11.6599 11.294C11.6599 11.294 11.6757 11.3049 11.6862 11.3049C11.6968 11.3049 11.7073 11.3049 11.7126 11.294L14.7067 8.30151C14.9598 8.04893 15.1337 7.72498 15.2023 7.36808C15.2708 7.01668 15.2392 6.6488 15.0968 6.31386C14.9598 5.97893 14.7278 5.6989 14.4274 5.49575C14.1269 5.29808 13.779 5.18827 13.4152 5.18827C13.352 5.18827 13.2835 5.18827 13.2149 5.19925C13.2255 5.13336 13.2307 5.06747 13.2307 5.00158C13.2307 4.63919 13.12 4.28779 12.9197 3.99129C12.7194 3.69479 12.4348 3.45869 12.1027 3.32142C11.7706 3.18415 11.4068 3.14572 11.0537 3.2171C10.7005 3.28847 10.3736 3.45869 10.1206 3.71675L6.86815 6.97275C6.86815 6.97275 6.85233 6.98922 6.85233 7.00021C6.84706 7.01119 6.85233 7.02217 6.85233 7.02766C6.8576 7.03864 6.86288 7.04413 6.86815 7.04962C6.87869 7.05511 6.88396 7.0606 6.8945 7.0606L6.88923 7.07158Z" fill="var(--fill-0, #0066DC)"/>
<path id="Vector_5" d="M15.3702 7.30714C15.3333 7.55422 15.2489 7.79581 15.1224 8.01544C15.1172 8.02642 15.1119 8.03741 15.1119 8.04839C15.1172 8.05937 15.1224 8.07035 15.1277 8.08133L18.1166 11.0738C18.2168 11.1616 18.3011 11.2714 18.3538 11.3922C18.4118 11.513 18.4487 11.6448 18.454 11.7766C18.4592 11.9084 18.4434 12.0456 18.396 12.1719C18.3538 12.2982 18.28 12.4135 18.1904 12.5123H18.1851C18.0217 12.7155 17.7845 12.8418 17.5315 12.8692C17.2732 12.8912 17.0201 12.8143 16.8198 12.6496C16.7935 12.6277 16.7724 12.6112 16.7513 12.5892H16.7408V12.5782C16.7408 12.5782 16.6933 12.5398 16.6775 12.5178L13.7097 9.55285C13.7097 9.55285 13.6886 9.54186 13.6781 9.54186C13.6675 9.54186 13.6623 9.54186 13.6517 9.55285L13.1404 10.0635C13.1404 10.0635 13.1298 10.08 13.1298 10.0909C13.1298 10.1019 13.1351 10.1129 13.1404 10.1184L16.1082 13.0834C16.1082 13.0834 16.1135 13.0834 16.1187 13.0889L16.1293 13.0999C16.2242 13.1932 16.3032 13.303 16.3559 13.4293C16.4034 13.5501 16.435 13.6874 16.435 13.8191C16.435 13.9509 16.4087 14.0882 16.3612 14.209C16.3085 14.3353 16.2347 14.4451 16.1451 14.5439C16.0502 14.6373 15.9395 14.7141 15.813 14.769C15.6917 14.8239 15.56 14.8514 15.4229 14.8514C15.2911 14.8514 15.1593 14.8294 15.0328 14.78C14.9116 14.7306 14.7956 14.6537 14.7007 14.5604C14.6902 14.5494 14.6744 14.5384 14.6638 14.5274L11.9596 11.8205L10.8789 10.7443L7.89005 7.75738C7.63702 7.50481 7.3102 7.3291 6.95701 7.25772C6.60383 7.18634 6.2401 7.22478 5.908 7.36205C5.5759 7.49931 5.29124 7.73542 5.09093 8.03191C4.89062 8.3339 4.78519 8.68531 4.78519 9.04221C4.78519 9.1081 4.78519 9.17399 4.79573 9.23987C4.7272 9.23438 4.65867 9.22889 4.59542 9.22889C4.23169 9.22889 3.88378 9.33322 3.58331 9.53637C3.28284 9.73404 3.05089 10.0196 2.91384 10.3545C2.77678 10.6894 2.73988 11.0518 2.80841 11.4087C2.87694 11.7601 3.05089 12.0841 3.30919 12.3421L6.56166 15.5981C6.56166 15.5981 6.57747 15.6091 6.58801 15.6146C6.59856 15.6146 6.6091 15.6146 6.61964 15.6146C6.62491 15.6146 6.63546 15.6036 6.64073 15.5981C6.646 15.5926 6.65127 15.5817 6.65127 15.5707C6.68817 15.3236 6.77251 15.082 6.9043 14.8624C6.90957 14.8514 6.90957 14.8404 6.90957 14.8294C6.90957 14.8185 6.9043 14.8075 6.89375 14.7965L3.90486 11.804C3.80471 11.7162 3.72563 11.6064 3.66765 11.4856C3.60966 11.3648 3.57804 11.233 3.56749 11.1012C3.56222 10.9695 3.58331 10.8322 3.62548 10.7059C3.67292 10.5796 3.74145 10.4643 3.83106 10.3655C4.01556 10.1788 4.26332 10.069 4.52689 10.0525C4.78519 10.036 5.04876 10.1184 5.25434 10.2776L5.27016 10.2941H5.2807L5.28597 10.3051C5.30706 10.327 5.32814 10.3435 5.34923 10.3655L8.31704 13.3305C8.31704 13.3305 8.32231 13.336 8.32758 13.3414C8.33285 13.3414 8.33812 13.3414 8.34339 13.3414C8.34867 13.3414 8.35394 13.3414 8.35921 13.3414C8.36448 13.3414 8.36975 13.3414 8.36975 13.3305L8.88108 12.8198C8.88108 12.8198 8.89162 12.8034 8.89162 12.7924C8.89162 12.7814 8.89162 12.7704 8.88108 12.7649L5.91327 9.79993C5.91327 9.79993 5.908 9.79993 5.908 9.79444L5.89219 9.78346C5.70241 9.59128 5.59172 9.33322 5.58644 9.06417C5.58644 8.79513 5.69187 8.53157 5.88164 8.3394C6.07141 8.14722 6.32971 8.03741 6.59856 8.03191C6.8674 8.02642 7.13097 8.13624 7.32074 8.32292C7.33655 8.33391 7.3471 8.34489 7.35764 8.35587L10.2991 11.2989L11.3955 12.3916L14.1314 15.1314C14.3897 15.384 14.7113 15.5597 15.0644 15.6311C15.4176 15.7025 15.7814 15.664 16.1187 15.5268C16.4508 15.3895 16.7355 15.1534 16.9358 14.8569C17.1308 14.5549 17.2415 14.2035 17.2415 13.8466C17.2415 13.7807 17.2415 13.7148 17.231 13.6489C17.2943 13.6544 17.3628 13.6599 17.4313 13.6599C17.7898 13.6599 18.143 13.5556 18.4382 13.3524C18.7386 13.1548 18.9706 12.8692 19.1129 12.5343C19.2499 12.1994 19.2868 11.837 19.213 11.4801C19.1445 11.1287 18.9706 10.8047 18.7175 10.5467L15.4598 7.29067C15.4598 7.29067 15.444 7.27969 15.4334 7.2742C15.4229 7.2742 15.4176 7.2742 15.4071 7.2742C15.3965 7.2742 15.386 7.28518 15.3807 7.29067C15.3755 7.29616 15.3702 7.30714 15.3702 7.31812V7.30714Z" fill="var(--fill-0, #D80008)"/>
</g>
</g>
</g>
<defs>
<linearGradient id="paint0_linear_0_292" x1="0.421026" y1="22.0104" x2="21.6039" y2="0.827466" gradientUnits="userSpaceOnUse">
<stop stop-color="#F6BF12"/>
<stop offset="1" stop-color="#FEEF9D"/>
</linearGradient>
</defs>
</svg>
