<svg preserveAspectRatio="none" width="100%" height="100%" overflow="visible" style="display: block;" viewBox="0 0 25.2091 30.1346" fill="none" xmlns="http://www.w3.org/2000/svg">
<g id="Group 36851">
<path id="Path 77484" d="M0.723124 6.25804C0.759485 5.85434 0.936311 5.47895 1.21971 5.20379C1.50311 4.92864 1.87315 4.77309 2.25892 4.76694C3.96934 4.77127 5.66732 4.46125 7.27615 3.85089C8.2522 3.39761 9.17133 2.81954 10.0127 2.12978L11.585 0.879797C11.9018 0.6221 12.294 0.488129 12.6945 0.500827C13.0949 0.513526 13.4787 0.672104 13.7802 0.949409C14.975 2.08893 16.3191 3.04258 17.7713 3.78128C17.8611 3.82734 17.9534 3.86776 18.0478 3.90234C19.618 4.4794 21.2701 4.77144 22.9335 4.76593C23.3168 4.77306 23.6844 4.92778 23.9664 5.20076C24.2484 5.47374 24.4253 5.84599 24.4636 6.24694C24.7832 9.23721 25.1642 15.932 22.9518 20.6595C20.531 25.834 15.0069 28.6689 13.1611 29.4992C12.9669 29.5885 12.7573 29.6346 12.5453 29.6346C12.3334 29.6346 12.1237 29.5885 11.9296 29.4992C10.1058 28.6669 4.67011 25.833 2.27332 20.6646C0.0732983 15.933 0.420765 9.25537 0.723124 6.25804Z" fill="var(--fill-0, white)" stroke="var(--stroke-0, black)"/>
<path id="Union 2" d="M10.9529 19.4267V18.211C10.9529 17.9167 10.8417 17.6344 10.6437 17.4263C10.4457 17.2182 10.1771 17.1013 9.89706 17.1013H8.74522C8.28954 17.1013 7.85252 16.911 7.5303 16.5724C7.20808 16.2337 7.02705 15.7744 7.02705 15.2954C7.02705 14.8165 7.20808 14.3571 7.5303 14.0185C7.85252 13.6798 8.28954 13.4895 8.74522 13.4895H9.90187C10.1819 13.4895 10.4505 13.3726 10.6485 13.1645C10.8465 12.9564 10.9577 12.6741 10.9577 12.3798V11.1692C10.9577 10.6902 11.1387 10.2309 11.4609 9.89222C11.7832 9.55356 12.2202 9.3633 12.6759 9.3633C13.1316 9.3633 13.5686 9.55356 13.8908 9.89222C14.213 10.2309 14.394 10.6902 14.394 11.1692V12.3869C14.394 12.6812 14.5053 12.9635 14.7033 13.1716C14.9013 13.3797 15.1699 13.4966 15.4499 13.4966H16.6017C17.0574 13.4966 17.4944 13.6869 17.8167 14.0255C18.1389 14.3642 18.3199 14.8235 18.3199 15.3025C18.3199 15.7814 18.1389 16.2408 17.8167 16.5794C17.4944 16.9181 17.0574 17.1083 16.6017 17.1083H15.4451C15.3062 17.1075 15.1686 17.1357 15.0401 17.1912C14.9117 17.2467 14.795 17.3284 14.6968 17.4316C14.5986 17.5348 14.5209 17.6575 14.4681 17.7925C14.4153 17.9275 14.3885 18.0721 14.3893 18.2181V19.4287C14.3893 19.9077 14.2082 20.367 13.886 20.7057C13.5638 21.0443 13.1268 21.2346 12.6711 21.2346C12.2154 21.2346 11.7784 21.0443 11.4562 20.7057C11.1339 20.367 10.9529 19.9077 10.9529 19.4287V19.4287V19.4267Z" fill="var(--fill-0, #0066DC)" stroke="var(--stroke-0, white)" stroke-width="0.959868"/>
</g>
</svg>
