<svg preserveAspectRatio="none" width="100%" height="100%" overflow="visible" style="display: block;" viewBox="0 0 39.0607 7.47891" fill="none" xmlns="http://www.w3.org/2000/svg">
<g id="NexGen">
<path id="Vector" d="M38.2211 4.20755V5.85765C38.2211 6.21148 38.2758 6.45272 38.3852 6.58138C38.501 6.71004 38.6522 6.77437 38.8387 6.77437H38.9159C39.0124 6.77437 39.0607 6.82262 39.0607 6.91912V7.20861C39.0607 7.30511 39.0124 7.35336 38.9159 7.35336H36.3491C36.2526 7.35336 36.2043 7.30511 36.2043 7.20861V6.91912C36.2043 6.82262 36.2526 6.77437 36.3491 6.77437H36.4166C36.5517 6.77437 36.6611 6.71004 36.7447 6.58138C36.8284 6.45272 36.8702 6.21148 36.8702 5.85765V4.20755C36.8702 3.89876 36.8219 3.66395 36.7254 3.50312C36.6289 3.33586 36.4456 3.25223 36.1754 3.25223C36.0146 3.25223 35.8537 3.29405 35.6929 3.37768C35.5321 3.45487 35.3905 3.55781 35.2683 3.68647C35.1461 3.8087 35.056 3.94058 34.9981 4.08211V5.85765C34.9981 6.11498 35.0528 6.3337 35.1622 6.51383C35.278 6.68753 35.4291 6.77437 35.6157 6.77437H35.635C35.7315 6.77437 35.7798 6.82262 35.7798 6.91912V7.20861C35.7798 7.30511 35.7315 7.35336 35.635 7.35336H32.9234C32.8269 7.35336 32.7787 7.30511 32.7787 7.20861V6.91912C32.7787 6.82262 32.8269 6.77437 32.9234 6.77437H32.9427C33.1808 6.77437 33.3577 6.68753 33.4735 6.51383C33.5893 6.3337 33.6472 6.11498 33.6472 5.85765V4.64179C33.6472 4.46809 33.6343 4.30083 33.6086 4.14C33.5893 3.97918 33.5378 3.84408 33.4542 3.73472C33.377 3.61892 33.2483 3.55137 33.0682 3.53207C32.9974 3.52564 32.962 3.48382 32.962 3.40663V3.07854C32.962 3.0142 33.0071 2.97239 33.0971 2.95309C33.5603 2.88233 33.956 2.77296 34.2841 2.625C34.6186 2.47704 34.8502 2.35802 34.9788 2.26796C35.011 2.24223 35.0367 2.22936 35.056 2.22936H35.0657C35.0785 2.22936 35.085 2.23579 35.085 2.24866C35.085 2.26153 35.0818 2.28726 35.0753 2.32586L34.9113 3.51277C35.0013 3.36481 35.1204 3.2072 35.2683 3.03994C35.4163 2.86624 35.5996 2.71828 35.8184 2.59605C36.0371 2.46739 36.2912 2.40306 36.5807 2.40306C36.9281 2.40306 37.2111 2.45452 37.4299 2.55745C37.6486 2.66038 37.8126 2.79869 37.922 2.97239C38.0378 3.14608 38.115 3.33908 38.1536 3.55137C38.1986 3.76367 38.2211 3.98239 38.2211 4.20755Z" fill="var(--fill-0, white)"/>
<path id="Vector_2" d="M29.1757 5.62606C29.2851 5.89626 29.4588 6.1375 29.6968 6.34979C29.9413 6.56209 30.2501 6.66823 30.6232 6.66823C30.829 6.66823 31.0446 6.61033 31.2697 6.49454C31.4949 6.37874 31.6911 6.19861 31.8583 5.95415C31.8776 5.92199 31.9034 5.9059 31.9355 5.9059C31.9677 5.9059 31.9999 5.91556 32.032 5.93485C32.0706 5.95415 32.1671 6.00884 32.3215 6.0989C32.3473 6.1182 32.3601 6.14393 32.3601 6.1761C32.3601 6.22113 32.3408 6.27581 32.3022 6.34014C32.1221 6.67467 31.8776 6.94807 31.5689 7.16037C31.2601 7.37266 30.858 7.47881 30.3626 7.47881C29.8287 7.47881 29.3687 7.35979 28.9827 7.12177C28.5967 6.88374 28.2976 6.56852 28.0853 6.1761C27.8794 5.78368 27.7765 5.35587 27.7765 4.89269C27.7765 4.4488 27.8408 4.06924 27.9695 3.75402C28.1046 3.43236 28.2815 3.17504 28.5002 2.98204C28.719 2.78262 28.9634 2.63787 29.2336 2.54781C29.5102 2.45131 29.7901 2.40306 30.0731 2.40306C30.3948 2.40306 30.6779 2.46739 30.9223 2.59605C31.1668 2.71828 31.3726 2.8759 31.5399 3.06889C31.7136 3.26188 31.8423 3.46774 31.9259 3.68647C32.016 3.89877 32.061 4.09819 32.061 4.28475C32.061 4.33622 32.032 4.37482 31.9741 4.40055L29.1757 5.62606ZM30.6135 4.24615C30.6135 3.93736 30.5396 3.68326 30.3916 3.48383C30.2436 3.2844 30.0571 3.18469 29.8319 3.18469C29.5681 3.18469 29.3591 3.29083 29.2047 3.50313C29.0503 3.70899 28.9731 3.96953 28.9731 4.28475C28.9731 4.38125 28.9763 4.50026 28.9827 4.64179C28.9956 4.78332 29.0213 4.91198 29.0599 5.02778L30.6135 4.24615Z" fill="var(--fill-0, white)"/>
<path id="Vector_3" d="M21.4231 3.38705C21.4231 3.74087 21.4617 4.10434 21.5389 4.47747C21.6161 4.84415 21.7384 5.18511 21.9056 5.50034C22.0729 5.81556 22.2884 6.06967 22.5521 6.26266C22.8159 6.44922 23.1343 6.5425 23.5075 6.5425C23.649 6.5425 23.8034 6.52642 23.9707 6.49425C24.1443 6.45566 24.2923 6.39454 24.4145 6.31091C24.5432 6.22085 24.6075 6.10183 24.6075 5.95387V5.45209C24.6075 5.0854 24.5561 4.82486 24.4531 4.67046C24.3502 4.51606 24.2183 4.42278 24.0575 4.39062C23.9031 4.35845 23.7423 4.34237 23.575 4.34237H23.5075C23.411 4.34237 23.3627 4.29412 23.3627 4.19762V3.90813C23.3627 3.81164 23.411 3.76339 23.5075 3.76339H26.5471C26.6436 3.76339 26.6919 3.81164 26.6919 3.90813V4.19762C26.6919 4.29412 26.6436 4.34237 26.5471 4.34237H26.4699C26.3027 4.34237 26.219 4.44852 26.219 4.66081V5.70298C26.0003 6.21763 25.6368 6.64222 25.1286 6.97674C24.6204 7.31126 23.9996 7.47853 23.2662 7.47853C22.7258 7.47853 22.2401 7.38525 21.8091 7.19868C21.3781 7.01212 21.0114 6.75158 20.709 6.41706C20.4067 6.08253 20.1751 5.69333 20.0143 5.24944C19.8534 4.80556 19.773 4.32629 19.773 3.81164C19.773 3.48998 19.8084 3.15224 19.8792 2.79842C19.9499 2.44459 20.0657 2.10364 20.2266 1.77555C20.3938 1.44102 20.6125 1.14188 20.8827 0.878124C21.1594 0.607931 21.4971 0.395638 21.896 0.241242C22.3013 0.080414 22.7805 0 23.3338 0C23.797 0 24.1958 0.0578981 24.5303 0.173695C24.8713 0.289491 25.1543 0.437453 25.3795 0.617581C25.6047 0.797709 25.7816 0.98427 25.9102 1.17726C26.0453 1.37026 26.1418 1.55039 26.1997 1.71765C26.2576 1.87848 26.2866 2.00071 26.2866 2.08434C26.2866 2.14224 26.2705 2.18405 26.2383 2.20978C26.2126 2.23552 26.174 2.25803 26.1225 2.27733L24.9453 2.69227C24.9195 2.6987 24.8906 2.70835 24.8584 2.72122C24.8327 2.72765 24.8037 2.73087 24.7716 2.73087C24.7458 2.73087 24.7201 2.72765 24.6944 2.72122C24.6686 2.70835 24.6558 2.6794 24.6558 2.63437C24.6558 2.60221 24.659 2.56361 24.6654 2.51857C24.6719 2.46711 24.6751 2.39956 24.6751 2.31593C24.6751 1.87204 24.5561 1.50214 24.318 1.20621C24.0864 0.910289 23.7326 0.762327 23.2566 0.762327C22.8899 0.762327 22.5682 0.874907 22.2916 1.10007C22.015 1.31879 21.7995 1.62437 21.6451 2.01679C21.4971 2.40921 21.4231 2.86596 21.4231 3.38705Z" fill="var(--fill-0, white)"/>
<path id="Vector_4" d="M13.9169 6.7742C14.1163 6.7742 14.2739 6.72595 14.3897 6.62945C14.5119 6.53296 14.6534 6.38178 14.8143 6.17592L15.8564 4.84426L14.9204 3.71524C14.5859 3.30995 14.3028 3.10731 14.0712 3.10731H14.0519C13.9554 3.10731 13.9072 3.05906 13.9072 2.96256V2.67307C13.9072 2.57658 13.9554 2.52833 14.0519 2.52833H16.474C16.5705 2.52833 16.6188 2.57658 16.6188 2.67307V2.96256C16.6188 3.05906 16.5705 3.10731 16.474 3.10731H16.4547C16.2167 3.10731 16.0977 3.15234 16.0977 3.24241C16.0977 3.31317 16.1556 3.4161 16.2714 3.5512L16.9179 4.34247L17.4004 3.71524C17.4905 3.59944 17.5612 3.49973 17.6127 3.4161C17.6642 3.33247 17.6899 3.26814 17.6899 3.22311C17.6899 3.14591 17.6127 3.10731 17.4583 3.10731H17.3618C17.2653 3.10731 17.2171 3.05906 17.2171 2.96256V2.67307C17.2171 2.57658 17.2653 2.52833 17.3618 2.52833H19.1277C19.2242 2.52833 19.2724 2.57658 19.2724 2.67307V2.96256C19.2724 3.05906 19.2242 3.10731 19.1277 3.10731H18.9926C18.7932 3.10731 18.642 3.15234 18.5391 3.24241C18.4361 3.33247 18.301 3.48686 18.1338 3.70559L17.2942 4.79601L18.4233 6.16627C18.7514 6.57155 19.0344 6.7742 19.2724 6.7742H19.2917C19.3882 6.7742 19.4365 6.82245 19.4365 6.91894V7.20844C19.4365 7.30493 19.3882 7.35318 19.2917 7.35318H16.8214C16.7249 7.35318 16.6767 7.30493 16.6767 7.20844V6.91894C16.6767 6.82245 16.7249 6.7742 16.8214 6.7742H16.8407C16.905 6.7742 16.979 6.76133 17.0627 6.7356C17.1527 6.70987 17.1978 6.65519 17.1978 6.57156C17.1978 6.50722 17.1495 6.41394 17.053 6.29171L16.2231 5.28814L15.5477 6.16627C15.464 6.28206 15.3933 6.38178 15.3354 6.46541C15.2839 6.54261 15.2582 6.60694 15.2582 6.6584C15.2582 6.7356 15.3386 6.7742 15.4994 6.7742H15.6827C15.7792 6.7742 15.8275 6.82245 15.8275 6.91894V7.20844C15.8275 7.30493 15.7792 7.35318 15.6827 7.35318H13.9169C13.8204 7.35318 13.7721 7.30493 13.7721 7.20844V6.91894C13.7721 6.82245 13.8204 6.7742 13.9169 6.7742Z" fill="var(--fill-0, white)"/>
<path id="Vector_5" d="M10.1674 5.62606C10.2768 5.89626 10.4505 6.1375 10.6885 6.34979C10.933 6.56209 11.2418 6.66823 11.6149 6.66823C11.8208 6.66823 12.0363 6.61033 12.2614 6.49454C12.4866 6.37874 12.6828 6.19861 12.8501 5.95415C12.8694 5.92199 12.8951 5.9059 12.9273 5.9059C12.9594 5.9059 12.9916 5.91556 13.0238 5.93485C13.0624 5.95415 13.1588 6.00884 13.3132 6.0989C13.339 6.1182 13.3518 6.14393 13.3518 6.1761C13.3518 6.22113 13.3325 6.27581 13.2939 6.34014C13.1138 6.67467 12.8694 6.94807 12.5606 7.16037C12.2518 7.37266 11.8497 7.47881 11.3544 7.47881C10.8204 7.47881 10.3604 7.35979 9.97444 7.12177C9.58845 6.88374 9.28931 6.56852 9.07702 6.1761C8.87116 5.78368 8.76823 5.35587 8.76823 4.89269C8.76823 4.4488 8.83256 4.06924 8.96122 3.75402C9.09632 3.43236 9.27323 3.17504 9.49196 2.98204C9.71068 2.78262 9.95514 2.63787 10.2253 2.54781C10.502 2.45131 10.7818 2.40306 11.0649 2.40306C11.3865 2.40306 11.6696 2.46739 11.914 2.59605C12.1585 2.71828 12.3644 2.8759 12.5316 3.06889C12.7053 3.26188 12.834 3.46774 12.9176 3.68647C13.0077 3.89877 13.0527 4.09819 13.0527 4.28475C13.0527 4.33622 13.0238 4.37482 12.9659 4.40055L10.1674 5.62606ZM11.6052 4.24615C11.6052 3.93736 11.5313 3.68326 11.3833 3.48383C11.2353 3.2844 11.0488 3.18469 10.8236 3.18469C10.5599 3.18469 10.3508 3.29083 10.1964 3.50313C10.042 3.70899 9.96479 3.96953 9.96479 4.28475C9.96479 4.38125 9.96801 4.50026 9.97444 4.64179C9.98731 4.78332 10.013 4.91198 10.0516 5.02778L11.6052 4.24615Z" fill="var(--fill-0, white)"/>
<path id="Vector_6" d="M8.06716 0.11647C8.16366 0.11647 8.2119 0.164719 8.2119 0.261216V0.550707C8.2119 0.647205 8.16366 0.695453 8.06716 0.695453C7.82913 0.695453 7.65222 0.782301 7.53642 0.955995C7.42063 1.12969 7.36273 1.34842 7.36273 1.61218V7.20901C7.36273 7.30551 7.31448 7.35375 7.21798 7.35375H6.55215C6.48782 7.35375 6.42992 7.3248 6.37846 7.26691L1.81415 2.01746V5.85805C1.81415 6.11537 1.87204 6.3341 1.98784 6.51423C2.11007 6.68792 2.2902 6.77477 2.52822 6.77477C2.62472 6.77477 2.67297 6.82302 2.67297 6.91952V7.20901C2.67297 7.30551 2.62472 7.35375 2.52822 7.35375H0.144746C0.0482486 7.35375 0 7.30551 0 7.20901V6.91952C0 6.82302 0.0482486 6.77477 0.144746 6.77477C0.382772 6.77477 0.559683 6.68792 0.67548 6.51423C0.791276 6.3341 0.849174 6.11537 0.849174 5.85805V0.936696C0.752677 0.853065 0.65618 0.79195 0.559683 0.753352C0.469619 0.714753 0.363472 0.695453 0.241243 0.695453C0.144746 0.695453 0.096497 0.647205 0.096497 0.550707V0.261216C0.096497 0.164719 0.144746 0.11647 0.241243 0.11647H1.91064C1.98141 0.11647 2.03931 0.145419 2.08434 0.203318L6.39776 5.12467V1.61218C6.39776 1.34842 6.33664 1.12969 6.21441 0.955995C6.09862 0.782301 5.92171 0.695453 5.68368 0.695453C5.58718 0.695453 5.53893 0.647205 5.53893 0.550707V0.261216C5.53893 0.164719 5.58718 0.11647 5.68368 0.11647H8.06716Z" fill="var(--fill-0, white)"/>
</g>
</svg>
