<svg preserveAspectRatio="none" width="100%" height="100%" overflow="visible" style="display: block;" viewBox="0 0 27.3169 25.4285" fill="none" xmlns="http://www.w3.org/2000/svg">
<g id="Icon">
<path id="vector" d="M4.45274 24.9885H22.8642C24.5589 24.9885 25.9327 23.568 25.9327 21.8158L26.8769 4.36607C26.8769 2.61385 26.4647 1.65413 23.8083 1.19339C23.8083 1.19339 18.9393 0.44 13.5804 0.44C7.63338 0.44 3.50857 1.19339 3.50857 1.19339C1.50838 1.68237 0.44 2.61385 0.44 4.36607L1.38417 21.8158C1.38417 23.568 2.75802 24.9885 4.45274 24.9885Z" fill="var(--fill-0, white)" stroke="var(--stroke-0, #252D38)" stroke-width="0.88" stroke-linecap="round" stroke-linejoin="round"/>
<path id="Vector 109" d="M5.11899 14.7574C4.77429 12.8427 5.24754 11.1955 6.66722 10.9276C9.68034 10.359 10.9916 12.2266 9.98775 15.3686C9.47857 16.9622 10.3837 18.3013 10.7415 20.4818C11.0778 22.5309 8.11919 23.264 7.23762 21.4189C6.31347 19.4846 5.51284 16.1495 5.11899 14.7574Z" fill="var(--fill-0, #0066DC)" stroke="var(--stroke-0, white)" stroke-width="0.75534"/>
<path id="Vector 110" d="M23.1415 14.7574C23.4862 12.8427 23.0129 11.1955 21.5932 10.9276C18.5801 10.359 17.2688 12.2266 18.2727 15.3686C18.7819 16.9622 17.8768 18.3013 17.519 20.4818C17.1827 22.5309 20.1413 23.264 21.0228 21.4189C21.947 19.4846 22.7476 16.1495 23.1415 14.7574Z" fill="var(--fill-0, #0066DC)" stroke="var(--stroke-0, white)" stroke-width="0.75534"/>
<g id="Scale">
<path id="Union" d="M14.3554 4.49471C14.4264 4.40724 14.5698 4.44244 14.6112 4.55721L15.0556 5.78572C15.0941 5.89236 15.0164 5.9961 14.9091 5.98104L14.5936 5.93612L14.2997 9.10701C14.2807 9.31016 14.1226 9.47706 13.9462 9.48006C13.7697 9.48297 13.6423 9.32086 13.661 9.11776L13.9628 5.84725L13.6181 5.7994C13.4982 5.78257 13.4345 5.63472 13.5077 5.54354L14.3554 4.49471Z" fill="var(--fill-0, #252D38)"/>
<path id="vector_2" d="M17.1858 9.27725H11.0747M17.1858 9.27725C17.399 9.27725 17.5797 9.1104 17.6099 8.88576L18.2744 4.68709C18.3482 4.1377 18.0469 3.78296 17.4263 3.64617C17.4263 3.64617 16.0635 3.20811 13.9546 3.23579C11.8456 3.26347 10.8343 3.64617 10.8343 3.64617C10.2748 3.78296 9.91237 4.1377 9.9861 4.68709L10.6506 8.88576C10.6808 9.1104 10.8615 9.27725 11.0747 9.27725M17.1858 9.27725H13.7019H11.0747" stroke="var(--stroke-0, #252D38)" stroke-width="0.88" stroke-linecap="round" stroke-linejoin="round"/>
</g>
</g>
</svg>
