<svg width="215" height="47" viewBox="0 0 215 47" fill="none" xmlns="http://www.w3.org/2000/svg">
<g id="generic-medibuddy-02">
<g id="Group 210374">
<g id="Group 181910">
<g id="Group 106796">
<path id="Path 50" d="M34.8041 35.4789C34.1015 35.375 33.4253 35.1374 32.8121 34.7789C32.7839 34.7621 32.7509 34.7551 32.7184 34.7591C32.6858 34.763 32.6554 34.7778 32.6321 34.8009L24.2111 43.2179C23.9583 43.498 23.6529 43.7256 23.3121 43.8877C22.9714 44.0497 22.602 44.1431 22.2252 44.1624C21.8484 44.1817 21.4714 44.1266 21.1159 44.0002C20.7604 43.8739 20.4332 43.6787 20.1531 43.4259C19.5996 42.9257 19.2622 42.2298 19.2124 41.4854C19.1626 40.741 19.4042 40.0064 19.8861 39.4369L19.9441 39.3679L19.9641 39.3459L19.9731 39.3359C20.0291 39.2749 20.0841 39.2099 20.1461 39.1539L28.5041 30.7959C28.5246 30.7753 28.5361 30.7474 28.5361 30.7184C28.5361 30.6893 28.5246 30.6615 28.5041 30.6409L27.0671 29.2039C27.0465 29.1834 27.0187 29.1719 26.9896 29.1719C26.9606 29.1719 26.9327 29.1834 26.9121 29.2039L18.5561 37.5619C18.5493 37.5694 18.542 37.5764 18.5341 37.5829L18.4971 37.6179C17.9596 38.1434 17.2376 38.4374 16.4858 38.4367C15.7341 38.436 15.0126 38.1407 14.4761 37.6142C13.9395 37.0876 13.6308 36.3717 13.616 35.6201C13.6013 34.8685 13.8817 34.1411 14.3971 33.5939C14.4301 33.5619 14.4601 33.5259 14.4971 33.4939L22.8261 25.1699C22.8466 25.1493 22.8581 25.1214 22.8581 25.0924C22.8581 25.0633 22.8466 25.0355 22.8261 25.0149L21.3901 23.5769C21.3695 23.5564 21.3417 23.5449 21.3126 23.5449C21.2836 23.5449 21.2557 23.5564 21.2351 23.5769L12.8181 31.9909C12.1014 32.7078 11.6134 33.6211 11.4158 34.6154C11.2181 35.6097 11.3197 36.6402 11.7077 37.5768C12.0957 38.5133 12.7527 39.3138 13.5956 39.877C14.4384 40.4402 15.4294 40.7408 16.4431 40.7409C16.6313 40.742 16.8193 40.7313 17.0061 40.7089C16.9845 40.8961 16.9741 41.0844 16.9751 41.2729C16.9752 42.2866 17.2758 43.2775 17.839 44.1204C18.4022 44.9633 19.2027 45.6203 20.1392 46.0083C21.0757 46.3963 22.1063 46.4979 23.1006 46.3002C24.0948 46.1026 25.0082 45.6145 25.7251 44.8979L34.8931 35.7279C34.9125 35.7084 34.9261 35.6839 34.9324 35.6572C34.9387 35.6304 34.9374 35.6025 34.9286 35.5764C34.9199 35.5504 34.9041 35.5273 34.883 35.5097C34.8619 35.4921 34.8363 35.4807 34.8091 35.4769L34.8041 35.4789Z" fill="#1F7DF8"/>
<path id="Path 50-2" d="M11.5862 10.9351C12.2888 11.039 12.965 11.2766 13.5781 11.635C13.6063 11.6519 13.6393 11.6588 13.6719 11.6548C13.7045 11.6509 13.7348 11.6362 13.7582 11.613L22.1791 3.19605C22.432 2.91599 22.7375 2.68847 23.0783 2.5265C23.4191 2.36453 23.7884 2.27126 24.1653 2.25204C24.5421 2.23282 24.919 2.28801 25.2745 2.41447C25.63 2.54093 25.9571 2.73617 26.2372 2.98905C26.7909 3.48912 27.1284 4.1849 27.1784 4.92932C27.2284 5.67373 26.987 6.40842 26.5051 6.97805L26.4471 7.04705L26.4262 7.06904L26.4171 7.07905C26.3611 7.14005 26.3062 7.20504 26.2452 7.26104L17.8872 15.619C17.8769 15.6293 17.8687 15.6414 17.8631 15.6548C17.8576 15.6682 17.8547 15.6825 17.8547 15.697C17.8547 15.7115 17.8576 15.7259 17.8631 15.7393C17.8687 15.7527 17.8769 15.7648 17.8872 15.775L19.3241 17.2121C19.3448 17.2325 19.3726 17.244 19.4016 17.244C19.4307 17.244 19.4585 17.2325 19.4791 17.2121L27.8351 8.85404C27.8417 8.84629 27.8491 8.83925 27.8572 8.83305L27.8951 8.79705C28.4288 8.25336 29.1565 7.9439 29.9183 7.93678C30.68 7.92965 31.4134 8.22543 31.9571 8.75904C32.5008 9.29266 32.8103 10.0204 32.8174 10.7822C32.8245 11.5439 32.5288 12.2774 31.9952 12.8211C31.9622 12.8541 31.9321 12.889 31.8951 12.921L23.5662 21.2451C23.5559 21.2553 23.5477 21.2674 23.5421 21.2808C23.5366 21.2942 23.5337 21.3086 23.5337 21.3231C23.5337 21.3376 23.5366 21.3519 23.5421 21.3653C23.5477 21.3787 23.5559 21.3908 23.5662 21.4011L25.0022 22.839C25.0228 22.8595 25.0506 22.871 25.0797 22.871C25.1087 22.871 25.1365 22.8595 25.1572 22.839L33.5761 14.417C34.2928 13.7001 34.7809 12.7868 34.9785 11.7925C35.1762 10.7982 35.0746 9.76766 34.6866 8.83113C34.2986 7.89459 33.6416 7.09412 32.7987 6.53092C31.9558 5.96773 30.9649 5.6671 29.9511 5.66705C29.763 5.6661 29.575 5.67679 29.3882 5.69905C29.41 5.51184 29.4206 5.32352 29.4202 5.13505C29.4194 4.12162 29.1184 3.13113 28.555 2.28871C27.9917 1.44628 27.1913 0.789701 26.255 0.401911C25.3187 0.0141216 24.2885 -0.0874742 23.2945 0.109934C22.3004 0.307343 21.3872 0.7949 20.6702 1.51104L11.5022 10.6811C11.4828 10.7005 11.4692 10.725 11.4629 10.7517C11.4566 10.7785 11.4579 10.8064 11.4666 10.8325C11.4754 10.8585 11.4911 10.8817 11.5123 10.8992C11.5334 10.9168 11.559 10.9282 11.5862 10.932V10.9351Z" fill="#1F7DF8"/>
</g>
<path id="Path 75" d="M35.4687 11.5961C35.3649 12.2988 35.1272 12.9749 34.7687 13.5881C34.7519 13.6163 34.745 13.6493 34.749 13.6819C34.7529 13.7145 34.7676 13.7448 34.7907 13.7681L43.2077 22.1891C43.4879 22.4419 43.7155 22.7474 43.8775 23.0881C44.0396 23.4289 44.133 23.7982 44.1523 24.175C44.1716 24.5519 44.1165 24.9288 43.9901 25.2843C43.8637 25.6399 43.6686 25.967 43.4157 26.2471L43.4007 26.2651C42.9387 26.8243 42.2734 27.1771 41.5512 27.2459C40.8291 27.3148 40.1092 27.094 39.5498 26.6321C39.4831 26.5768 39.4191 26.5184 39.3577 26.4571L39.3357 26.4361L39.3258 26.4271C39.2648 26.3711 39.1997 26.3151 39.1437 26.2541L30.7868 17.8971C30.7661 17.8767 30.7383 17.8652 30.7093 17.8652C30.6802 17.8652 30.6524 17.8767 30.6318 17.8971L29.1947 19.3341C29.1743 19.3547 29.1628 19.3826 29.1628 19.4116C29.1628 19.4406 29.1743 19.4685 29.1947 19.4891L37.5507 27.8441C37.5583 27.8509 37.5653 27.8583 37.5717 27.8661L37.6067 27.9031C37.876 28.1673 38.0905 28.482 38.2381 28.8291C38.3857 29.1763 38.4635 29.549 38.467 29.9262C38.4705 30.3034 38.3997 30.6776 38.2587 31.0275C38.1176 31.3773 37.909 31.6959 37.6448 31.9651C37.3805 32.2343 37.0659 32.4489 36.7187 32.5965C36.3716 32.7441 35.9988 32.8218 35.6216 32.8254C35.2444 32.8289 34.8702 32.7581 34.5204 32.617C34.1706 32.4759 33.852 32.2673 33.5827 32.0031C33.5507 31.9711 33.5148 31.9401 33.4827 31.9031L25.8577 24.2731L22.8207 21.2361L14.4067 12.8191C13.6898 12.1024 12.7765 11.6144 11.7822 11.4167C10.7879 11.2191 9.75736 11.3207 8.82082 11.7087C7.88428 12.0967 7.08382 12.7537 6.52062 13.5965C5.95743 14.4394 5.6568 15.4304 5.65675 16.4441C5.65558 16.6323 5.66627 16.8203 5.68874 17.0071C5.50154 16.9854 5.3132 16.975 5.12475 16.9761C4.1111 16.9763 3.12028 17.2771 2.27755 17.8404C1.43481 18.4037 0.778 19.2041 0.390129 20.1406C0.00225797 21.0771 -0.0992569 22.1076 0.0984268 23.1018C0.296111 24.096 0.78411 25.0092 1.50074 25.7261L10.6717 34.8941C10.6911 34.9135 10.7155 34.9271 10.7422 34.9334C10.7689 34.9397 10.7968 34.9385 10.8228 34.9299C10.8488 34.9213 10.872 34.9056 10.8896 34.8847C10.9073 34.8637 10.9187 34.8382 10.9228 34.8111C11.0267 34.1085 11.2643 33.4323 11.6227 32.8191C11.6396 32.7909 11.6465 32.7579 11.6425 32.7253C11.6386 32.6927 11.6239 32.6624 11.6007 32.6391L3.18374 24.2181C2.90361 23.9653 2.67602 23.6598 2.51395 23.3191C2.35189 22.9783 2.25853 22.609 2.23922 22.2322C2.2199 21.8554 2.27502 21.4784 2.40139 21.1229C2.52776 20.7674 2.72293 20.4402 2.97575 20.1601C3.49831 19.637 4.194 19.3229 4.93194 19.2769C5.66988 19.2308 6.39922 19.4561 6.98275 19.9101L7.03374 19.9501L7.05674 19.9701L7.06675 19.9791C7.12775 20.0351 7.19274 20.0901 7.24874 20.1521L15.6058 28.5091C15.616 28.5194 15.6281 28.5275 15.6415 28.5331C15.6549 28.5387 15.6692 28.5416 15.6837 28.5416C15.6982 28.5416 15.7126 28.5387 15.726 28.5331C15.7394 28.5275 15.7515 28.5194 15.7617 28.5091L17.1988 27.0721C17.2192 27.0515 17.2307 27.0237 17.2307 26.9946C17.2307 26.9656 17.2192 26.9377 17.1988 26.9171L8.84075 18.5621C8.8332 18.5553 8.82617 18.548 8.81974 18.5401L8.78475 18.5021C8.24106 17.9685 7.9316 17.2407 7.92448 16.479C7.91735 15.7172 8.21313 14.9838 8.74674 14.4401C9.28036 13.8964 10.0081 13.587 10.7699 13.5798C11.5316 13.5727 12.265 13.8685 12.8087 14.4021C12.8417 14.4341 12.8767 14.4651 12.9087 14.5021L21.1947 22.7921L24.2707 25.8681L31.9847 33.5851C32.7017 34.3018 33.615 34.7898 34.6093 34.9875C35.6036 35.1851 36.6341 35.0835 37.5707 34.6955C38.5072 34.3076 39.3077 33.6506 39.8709 32.8077C40.4341 31.9648 40.7347 30.9738 40.7347 29.9601C40.7357 29.772 40.725 29.5839 40.7028 29.3971C40.8899 29.4191 41.0783 29.4298 41.2667 29.4291C42.2804 29.4289 43.2712 29.1281 44.1139 28.5648C44.9567 28.0015 45.6135 27.2011 46.0014 26.2646C46.3892 25.3281 46.4908 24.2976 46.2931 23.3034C46.0954 22.3092 45.6074 21.396 44.8907 20.6791L35.7207 11.5111C35.7014 11.4914 35.6769 11.4776 35.6501 11.4711C35.6233 11.4646 35.5952 11.4657 35.569 11.4744C35.5428 11.483 35.5195 11.4988 35.5018 11.52C35.4841 11.5411 35.4726 11.5668 35.4687 11.5941V11.5961Z" fill="#F62F36"/>
</g>
<g id="Group 181911">
<path id="Path 234514" d="M73.8172 10.8111C73.4882 10.7909 73.1611 10.8738 72.8813 11.0481C72.625 11.2541 72.418 11.5148 72.2752 11.8111L63.5162 28.3811L54.7232 11.8141C54.5785 11.5137 54.3647 11.2519 54.0992 11.0501C53.8242 10.8812 53.5047 10.7989 53.1823 10.8141C52.2663 10.8141 51.8022 11.3011 51.8022 12.2621V34.1291C51.8022 35.0901 52.2663 35.5771 53.1823 35.5771C54.0753 35.5771 54.5282 35.0901 54.5282 34.1291V16.7481L62.2133 30.9811C62.3279 31.2315 62.499 31.452 62.7133 31.6251C62.9523 31.7669 63.2244 31.8432 63.5023 31.8463C63.7802 31.8495 64.054 31.7794 64.2962 31.6431C64.5153 31.4633 64.6927 31.2381 64.8163 30.9831L72.4012 16.7211V34.1291C72.4012 35.0901 72.8652 35.5771 73.7802 35.5771C74.6952 35.5771 75.1602 35.0901 75.1602 34.1291V12.2591C75.1622 11.2981 74.7102 10.8111 73.8172 10.8111Z" fill="#1F7DF8"/>
<path id="Path 234515" d="M93.6414 26.4612C93.7619 24.283 93.0723 22.1373 91.7054 20.4372C91.0282 19.6984 90.1963 19.1182 89.2691 18.7379C88.3419 18.3577 87.3422 18.1867 86.3414 18.2372C84.868 18.2083 83.4151 18.585 82.1414 19.3262C80.9217 20.065 79.9337 21.131 79.2894 22.4032C78.5786 23.8203 78.2231 25.3891 78.2534 26.9742C78.1944 28.1317 78.3691 29.2891 78.767 30.3777C79.1649 31.4662 79.7779 32.4635 80.5694 33.3102C81.4037 34.1051 82.3911 34.7219 83.4714 35.123C84.5517 35.5241 85.7024 35.7011 86.8534 35.6432C87.8862 35.6358 88.913 35.485 89.9044 35.1951C90.8747 34.9314 91.7912 34.4995 92.6124 33.9191C92.8285 33.8049 93.0104 33.6354 93.1397 33.428C93.269 33.2205 93.341 32.9825 93.3484 32.7381C93.3511 32.5328 93.298 32.3306 93.1946 32.1532C93.0912 31.9758 92.9414 31.8299 92.7614 31.7312C92.5325 31.628 92.2789 31.5928 92.0306 31.6299C91.7824 31.667 91.5501 31.7747 91.3614 31.9402C90.6848 32.4151 89.9285 32.7647 89.1284 32.9722C88.385 33.1611 87.6213 33.2582 86.8544 33.2612C86.1047 33.304 85.3541 33.1963 84.6467 32.9446C83.9393 32.6928 83.2894 32.302 82.7353 31.7952C81.6891 30.6502 81.1125 29.1531 81.1204 27.6022H92.3634C93.2114 27.6012 93.6414 27.2172 93.6414 26.4612ZM81.1594 25.6292C81.2631 24.2455 81.8173 22.9339 82.7374 21.8952C83.2116 21.4072 83.7844 21.0258 84.4175 20.7765C85.0507 20.5272 85.7297 20.4156 86.4094 20.4492C87.0393 20.4131 87.6695 20.5177 88.2539 20.7556C88.8384 20.9934 89.3626 21.3585 89.7884 21.8242C90.6342 22.9096 91.0901 24.2481 91.0824 25.6242L81.1594 25.6292Z" fill="#1F7DF8"/>
<path id="Path 234516" d="M109.611 10.8109C109.41 10.7829 109.205 10.8019 109.013 10.8664C108.82 10.9309 108.645 11.0393 108.501 11.1829C108.357 11.3265 108.249 11.5015 108.184 11.6941C108.12 11.8867 108.1 12.0917 108.128 12.293V21.2039C107.64 20.324 106.918 19.5969 106.04 19.1039C104.977 18.5133 103.777 18.2145 102.561 18.2379C101.179 18.2082 99.8166 18.5746 98.6354 19.2939C97.4942 20.0232 96.5906 21.0696 96.0354 22.3049C94.8163 25.264 94.8163 28.5849 96.0354 31.5439C96.593 32.7819 97.4957 33.8329 98.6354 34.5709C99.813 35.301 101.177 35.6738 102.562 35.6439C103.78 35.6672 104.982 35.3619 106.041 34.7599C106.931 34.2459 107.664 33.5001 108.163 32.6019V34.0579C108.163 35.0639 108.65 35.5749 109.611 35.5749C110.572 35.5749 111.059 35.0639 111.059 34.0579V12.293C111.089 12.0945 111.072 11.8918 111.011 11.7009C110.949 11.5099 110.844 11.3358 110.704 11.1923C110.563 11.0487 110.392 10.9396 110.202 10.8734C110.013 10.8073 109.811 10.7859 109.611 10.8109ZM108.197 26.94C108.305 28.6172 107.815 30.2783 106.813 31.6279C106.348 32.1416 105.781 32.5521 105.147 32.8331C104.514 33.114 103.829 33.2591 103.136 33.2591C102.443 33.2591 101.758 33.114 101.124 32.8331C100.491 32.5521 99.9235 32.1416 99.4584 31.6279C98.5653 30.2241 98.0909 28.5948 98.0909 26.931C98.0909 25.2671 98.5653 23.6377 99.4584 22.2339C99.9267 21.7254 100.495 21.3196 101.128 21.042C101.761 20.7644 102.445 20.621 103.136 20.621C103.828 20.621 104.511 20.7644 105.144 21.042C105.778 21.3196 106.346 21.7254 106.814 22.2339C107.821 23.5881 108.311 25.2567 108.197 26.94Z" fill="#1F7DF8"/>
<path id="Path 234517" d="M116.216 14.6998C117.472 14.6998 118.109 14.0998 118.109 12.9098C118.109 11.7438 117.472 11.1538 116.216 11.1538C114.96 11.1538 114.323 11.7448 114.323 12.9098C114.323 14.0968 114.96 14.6998 116.216 14.6998Z" fill="#1F7DF8"/>
<path id="Path 234518" d="M116.216 18.3701C115.255 18.3701 114.768 18.8921 114.768 19.9211V33.9211C114.768 34.9731 115.255 35.5061 116.216 35.5061C117.2 35.5061 117.698 34.9731 117.698 33.9211V19.9211C117.699 18.8961 117.2 18.3701 116.216 18.3701Z" fill="#1F7DF8"/>
</g>
<path id="Path 234519" d="M137.445 22.856C138.502 22.457 139.421 21.7627 140.094 20.856C140.804 19.8537 141.169 18.6485 141.136 17.421C141.179 16.5311 141.015 15.6432 140.657 14.8276C140.298 14.0119 139.755 13.2908 139.07 12.721C137.382 11.5084 135.327 10.916 133.253 11.044H125.143C124.923 11.0134 124.699 11.0342 124.489 11.1048C124.279 11.1753 124.088 11.2937 123.931 11.4506C123.774 11.6075 123.655 11.7986 123.585 12.009C123.514 12.2194 123.494 12.4432 123.524 12.663V33.709C123.493 33.9288 123.514 34.1528 123.585 34.3633C123.655 34.5738 123.773 34.7651 123.93 34.9221C124.087 35.0791 124.278 35.1976 124.489 35.2682C124.699 35.3388 124.923 35.3596 125.143 35.329H133.664C135.783 35.4577 137.881 34.8465 139.6 33.6C140.313 32.9873 140.875 32.2184 141.242 31.353C141.609 30.4877 141.771 29.5493 141.716 28.611C141.766 27.25 141.342 25.9138 140.516 24.831C139.722 23.8705 138.649 23.1804 137.445 22.856ZM138.787 28.582C138.787 31.499 137.022 32.917 133.387 32.917H126.417V24.247H133.387C137.022 24.247 138.787 25.665 138.787 28.582ZM126.421 21.829V13.467H132.844C136.452 13.467 138.206 14.84 138.206 17.667C138.206 20.467 136.452 21.831 132.844 21.831L126.421 21.829Z" fill="#F62F36"/>
<path id="Path 234520" d="M157.653 18.3049C157.452 18.277 157.247 18.2962 157.054 18.3608C156.862 18.4254 156.687 18.5337 156.543 18.6773C156.4 18.8209 156.291 18.9959 156.227 19.1884C156.162 19.3809 156.143 19.5858 156.171 19.7869V28.0679C156.236 29.434 155.765 30.7714 154.858 31.7949C154.423 32.256 153.895 32.6193 153.309 32.8606C152.722 33.102 152.092 33.2159 151.458 33.1949C150.944 33.2398 150.426 33.1704 149.942 32.9918C149.458 32.8132 149.02 32.5298 148.658 32.1619C147.993 31.221 147.678 30.0766 147.77 28.9279V19.7909C147.798 19.5897 147.779 19.3847 147.714 19.1921C147.649 18.9995 147.541 18.8245 147.397 18.6809C147.254 18.5373 147.079 18.4289 146.886 18.3644C146.693 18.2999 146.488 18.2809 146.287 18.3089C146.088 18.2839 145.886 18.3053 145.696 18.3714C145.507 18.4376 145.335 18.5467 145.195 18.6902C145.055 18.8338 144.949 19.0079 144.888 19.1988C144.826 19.3898 144.809 19.5924 144.839 19.7909V28.9539C144.839 33.3889 146.88 35.6379 150.907 35.6379C152.039 35.6538 153.155 35.3731 154.145 34.8239C155.014 34.3323 155.735 33.6168 156.234 32.7519V34.0519C156.234 35.0589 156.721 35.5689 157.682 35.5689C158.62 35.5689 159.096 35.0579 159.096 34.0519V19.7819C159.125 19.5843 159.107 19.3827 159.046 19.1928C158.984 19.0029 158.879 18.8299 158.739 18.687C158.6 18.5442 158.429 18.4354 158.241 18.3691C158.052 18.3029 157.851 18.2809 157.653 18.3049Z" fill="#F62F36"/>
<path id="Path 234521" d="M176.269 10.8109C176.068 10.7829 175.863 10.8019 175.67 10.8664C175.478 10.9309 175.303 11.0393 175.159 11.1829C175.015 11.3265 174.907 11.5015 174.842 11.6941C174.777 11.8867 174.758 12.0917 174.786 12.293V21.2039C174.298 20.324 173.575 19.597 172.698 19.1039C171.635 18.5134 170.435 18.2146 169.219 18.2379C167.837 18.2083 166.474 18.5747 165.293 19.2939C164.152 20.0232 163.248 21.0697 162.693 22.3049C161.474 25.264 161.474 28.5849 162.693 31.5439C163.251 32.7818 164.154 33.8328 165.293 34.5709C166.471 35.301 167.835 35.6738 169.22 35.6439C170.438 35.6671 171.64 35.3618 172.699 34.7599C173.589 34.246 174.322 33.5001 174.821 32.6019V34.0579C174.821 35.0639 175.308 35.5749 176.27 35.5749C177.232 35.5749 177.718 35.0639 177.718 34.0579V12.293C177.748 12.0944 177.731 11.8916 177.669 11.7005C177.608 11.5095 177.502 11.3354 177.362 11.1918C177.222 11.0482 177.05 10.9391 176.86 10.8731C176.671 10.807 176.468 10.7857 176.269 10.8109ZM174.855 26.94C174.963 28.6173 174.472 30.2785 173.47 31.6279C173.005 32.1416 172.438 32.5521 171.804 32.8331C171.171 33.114 170.486 33.2591 169.793 33.2591C169.1 33.2591 168.414 33.114 167.781 32.8331C167.148 32.5521 166.58 32.1416 166.115 31.6279C165.222 30.2241 164.748 28.5948 164.748 26.931C164.748 25.2671 165.222 23.6378 166.115 22.2339C166.583 21.7254 167.152 21.3196 167.785 21.042C168.418 20.7644 169.102 20.621 169.793 20.621C170.484 20.621 171.168 20.7644 171.801 21.042C172.434 21.3196 173.003 21.7254 173.471 22.2339C174.478 23.588 174.968 25.2566 174.855 26.94Z" fill="#F62F36"/>
<path id="Path 234522" d="M194.885 10.8114C194.684 10.7834 194.479 10.8024 194.286 10.8669C194.094 10.9314 193.919 11.0398 193.775 11.1834C193.631 11.327 193.523 11.502 193.458 11.6946C193.393 11.8872 193.374 12.0922 193.402 12.2934V21.2044C192.914 20.3245 192.191 19.5974 191.314 19.1044C190.252 18.5139 189.052 18.2151 187.836 18.2384C186.453 18.2085 185.091 18.575 183.909 19.2944C182.768 20.0238 181.865 21.0702 181.309 22.3054C180.09 25.2644 180.09 28.5855 181.309 31.5444C181.867 32.7824 182.77 33.8333 183.909 34.5714C185.087 35.3015 186.451 35.6743 187.836 35.6444C189.054 35.6676 190.256 35.3622 191.315 34.7604C192.205 34.2463 192.938 33.5005 193.437 32.6024V34.0584C193.437 35.0644 193.924 35.5754 194.885 35.5754C195.846 35.5754 196.333 35.0644 196.333 34.0584V12.2934C196.363 12.095 196.346 11.8923 196.284 11.7013C196.223 11.5104 196.118 11.3363 195.977 11.1928C195.837 11.0492 195.666 10.9401 195.476 10.8739C195.287 10.8078 195.084 10.7864 194.885 10.8114ZM193.471 26.9404C193.579 28.6177 193.089 30.2788 192.087 31.6284C191.622 32.1421 191.055 32.5526 190.421 32.8335C189.788 33.1145 189.103 33.2596 188.41 33.2596C187.717 33.2596 187.032 33.1145 186.398 32.8335C185.765 32.5526 185.197 32.1421 184.732 31.6284C183.839 30.2246 183.365 28.5953 183.365 26.9314C183.365 25.2676 183.839 23.6382 184.732 22.2344C185.2 21.7259 185.769 21.3201 186.402 21.0425C187.035 20.7648 187.719 20.6215 188.41 20.6215C189.102 20.6215 189.785 20.7648 190.418 21.0425C191.051 21.3201 191.62 21.7259 192.088 22.2344C193.094 23.5886 193.585 25.2572 193.471 26.9404Z" fill="#F62F36"/>
<path id="Path 234523" d="M214.188 18.9321C214.085 18.7246 213.922 18.5534 213.72 18.4414C213.517 18.3293 213.285 18.2818 213.055 18.3051C212.722 18.2843 212.392 18.3743 212.116 18.5611C211.847 18.8051 211.639 19.1094 211.51 19.4491L206.382 31.8971L201.289 19.4541C201.199 19.1299 201.007 18.8435 200.741 18.6374C200.475 18.4313 200.149 18.3165 199.813 18.3101C199.557 18.2804 199.298 18.3229 199.065 18.4328C198.832 18.5427 198.634 18.7157 198.494 18.9321C198.381 19.1555 198.323 19.4028 198.325 19.6532C198.328 19.9036 198.39 20.1498 198.507 20.3711L204.79 34.9861L202.716 39.6791C202.611 39.8994 202.554 40.1392 202.548 40.3831C202.543 40.6269 202.589 40.8692 202.683 41.0941C202.782 41.3055 202.944 41.481 203.147 41.5965C203.35 41.712 203.584 41.7618 203.816 41.7391C204.153 41.7574 204.487 41.6681 204.77 41.4841C205.049 41.245 205.264 40.9397 205.395 40.5961L214.156 20.3361C214.261 20.118 214.319 19.8798 214.325 19.6376C214.33 19.3954 214.283 19.1548 214.188 18.9321Z" fill="#F62F36"/>
</g>
</g>
</svg>